<?xml version="1.0" encoding="UTF-8" standalone="no"?>
<svg
   version="1.1"
   id="Layer_1"
   x="0px"
   y="0px"
   viewBox="0 0 312.00001 493.00001"
   xml:space="preserve"
   sodipodi:docname="normcap_install_bg.svg"
   inkscape:version="1.4.2 (ebf0e940d0, 2025-05-08)"
   inkscape:export-filename="normcap_install_bg-n.png"
   inkscape:export-xdpi="60.754562"
   inkscape:export-ydpi="60.754562"
   width="312"
   height="493"
   xmlns:inkscape="http://www.inkscape.org/namespaces/inkscape"
   xmlns:sodipodi="http://sodipodi.sourceforge.net/DTD/sodipodi-0.dtd"
   xmlns:xlink="http://www.w3.org/1999/xlink"
   xmlns="http://www.w3.org/2000/svg"
   xmlns:svg="http://www.w3.org/2000/svg"
   xmlns:rdf="http://www.w3.org/1999/02/22-rdf-syntax-ns#"
   xmlns:cc="http://creativecommons.org/ns#"
   xmlns:dc="http://purl.org/dc/elements/1.1/"><metadata
   id="metadata178"><rdf:RDF><cc:Work
       rdf:about=""><dc:format>image/svg+xml</dc:format><dc:type
         rdf:resource="http://purl.org/dc/dcmitype/StillImage" /><dc:title /></cc:Work></rdf:RDF></metadata><defs
   id="defs176"><linearGradient
     id="linearGradient1534"><stop
       style="stop-color:#262627;stop-opacity:1"
       offset="0"
       id="stop1530" /><stop
       style="stop-color:#3b3b3d;stop-opacity:1"
       offset="1"
       id="stop1532" /></linearGradient><linearGradient
     id="outerBackgroundGradient-76"><stop
       style="stop-color:#282829;stop-opacity:1"
       offset="0"
       id="stop3864-8-6-9" /><stop
       style="stop-color:#505053;stop-opacity:1"
       offset="1"
       id="stop3866-9-1-49" /></linearGradient><linearGradient
     inkscape:collect="always"
     xlink:href="#outerBackgroundGradient-76"
     id="linearGradient5994"
     gradientUnits="userSpaceOnUse"
     gradientTransform="rotate(-90,143.75,155.75)"
     x1="35"
     y1="156"
     x2="253"
     y2="156" /><linearGradient
     inkscape:collect="always"
     xlink:href="#linearGradient1534"
     id="linearGradient1528"
     gradientUnits="userSpaceOnUse"
     gradientTransform="rotate(-90,17.623004,276.25457)"
     x1="35"
     y1="156"
     x2="253"
     y2="156" /><linearGradient
     inkscape:collect="always"
     xlink:href="#outerBackgroundGradient-76"
     id="linearGradient907"
     x1="-127.97723"
     y1="152.16843"
     x2="-0.10787964"
     y2="152.16843"
     gradientUnits="userSpaceOnUse"
     gradientTransform="matrix(3.855498,0,0,2.3288934,-41.618039,-322.0132)" /><linearGradient
     id="a"
     x1="144.49"
     x2="144.49"
     y1="266.85"
     y2="53.568"
     gradientTransform="matrix(1.0096 0 0 1.0096 -.10691 -.10393)"
     gradientUnits="userSpaceOnUse"><stop
       stop-color="#282829"
       offset="0"
       id="stop1" /><stop
       stop-color="#505053"
       offset="1"
       id="stop2" /></linearGradient></defs><sodipodi:namedview
   pagecolor="#d6d6d6"
   bordercolor="#666666"
   borderopacity="1"
   objecttolerance="10"
   gridtolerance="10"
   guidetolerance="10"
   inkscape:pageopacity="0"
   inkscape:pageshadow="2"
   inkscape:window-width="1803"
   inkscape:window-height="1165"
   id="namedview174"
   showgrid="false"
   showguides="true"
   inkscape:guide-bbox="true"
   inkscape:zoom="0.75814091"
   inkscape:cx="218.95666"
   inkscape:cy="127.94455"
   inkscape:window-x="0"
   inkscape:window-y="0"
   inkscape:window-maximized="1"
   inkscape:current-layer="layer2"
   scale-x="256"
   inkscape:document-rotation="0"
   fit-margin-top="0"
   fit-margin-left="0"
   fit-margin-right="0"
   fit-margin-bottom="0"
   units="px"
   inkscape:showpageshadow="2"
   inkscape:pagecheckerboard="0"
   inkscape:deskcolor="#d1d1d1" />























<g
   style="display:none"
   inkscape:label="Baseplate"
   id="layer7"
   inkscape:groupmode="layer"
   transform="translate(123.62916,-42.033997)"><text
     y="19.745117"
     xml:space="preserve"
     x="15.006836"
     style="font-style:normal;font-variant:normal;font-weight:normal;font-stretch:normal;line-height:0%;font-family:'DejaVu Sans';-inkscape-font-specification:'DejaVu Sans';display:inline;fill:#000000;fill-opacity:1;stroke:none;enable-background:new"
     inkscape:label="context"
     id="context"><tspan
       style="font-style:normal;font-variant:normal;font-weight:normal;font-stretch:normal;font-size:18px;line-height:1.25;font-family:'DejaVu Sans';-inkscape-font-specification:'DejaVu Sans'"
       y="19.745117"
       x="15.006836"
       sodipodi:role="line"
       id="tspan3933">apps</tspan></text><text
     y="19.745117"
     xml:space="preserve"
     x="122.48828"
     style="font-style:normal;font-variant:normal;font-weight:bold;font-stretch:normal;line-height:0%;font-family:'DejaVu Sans';-inkscape-font-specification:'DejaVu Sans Bold';text-align:start;writing-mode:lr-tb;text-anchor:start;display:inline;fill:#000000;fill-opacity:1;stroke:none;enable-background:new"
     inkscape:label="icon-name"
     id="icon-name"><tspan
       style="font-style:normal;font-variant:normal;font-weight:bold;font-stretch:normal;font-size:18px;line-height:1.25;font-family:'DejaVu Sans';-inkscape-font-specification:'DejaVu Sans Bold'"
       y="19.745117"
       x="122.48828"
       sodipodi:role="line"
       id="tspan3937">bootloader</tspan></text><rect
     style="display:inline;overflow:visible;visibility:visible;fill:#eeeeec;fill-opacity:1;fill-rule:nonzero;stroke:none;stroke-width:2;marker:none;enable-background:accumulate"
     id="rect16x16"
     width="16"
     height="16"
     x="416"
     y="140"
     inkscape:label="16x16" /><rect
     style="display:inline;overflow:visible;visibility:visible;fill:#d4d4d4;fill-opacity:1;fill-rule:nonzero;stroke:none;stroke-width:2;marker:none;enable-background:accumulate"
     id="rect24x24"
     width="24"
     height="24"
     x="416"
     y="100"
     inkscape:label="24x24" /><rect
     style="display:inline;overflow:visible;visibility:visible;fill:#eeeeec;fill-opacity:1;fill-rule:nonzero;stroke:none;stroke-width:2;marker:none;enable-background:accumulate"
     id="rect32x32"
     width="32"
     height="32"
     x="416"
     y="52"
     inkscape:label="32x32" /><rect
     inkscape:label="22x22"
     y="101"
     x="417"
     height="22"
     width="22"
     id="rect22x22"
     style="display:inline;overflow:visible;visibility:visible;fill:#eeeeec;fill-opacity:1;fill-rule:nonzero;stroke:none;stroke-width:2;marker:none;enable-background:accumulate" /><rect
     inkscape:label="48x48"
     y="220"
     x="288"
     height="48"
     width="48"
     id="rect48x48"
     style="display:inline;overflow:visible;visibility:visible;fill:#eeeeec;fill-opacity:1;fill-rule:nonzero;stroke:none;stroke-width:2;marker:none;enable-background:accumulate" /><rect
     style="display:inline;overflow:visible;visibility:visible;fill:#eeeeec;fill-opacity:1;fill-rule:nonzero;stroke:none;stroke-width:2;marker:none;enable-background:accumulate"
     id="rect256x256"
     width="256"
     height="256"
     x="16"
     y="28"
     inkscape:label="256x256" /><rect
     style="display:inline;overflow:visible;visibility:visible;fill:#eeeeec;fill-opacity:1;fill-rule:nonzero;stroke:none;stroke-width:2;marker:none;enable-background:accumulate"
     id="rect64x64"
     width="64"
     height="64"
     x="288"
     y="140"
     inkscape:label="64x64" /><rect
     style="display:inline;overflow:visible;visibility:visible;fill:#eeeeec;fill-opacity:1;fill-rule:nonzero;stroke:none;stroke-width:2;marker:none;enable-background:accumulate"
     id="rect96x96"
     width="96"
     height="96"
     x="288"
     y="28"
     inkscape:label="96x96" /></g><g
   inkscape:groupmode="layer"
   id="layer4"
   inkscape:label="Shadow"
   style="display:inline"
   sodipodi:insensitive="true"
   transform="translate(123.62916,-42.033997)" /><g
   inkscape:groupmode="layer"
   id="layer2"
   inkscape:label="Background"
   style="display:inline"
   transform="translate(123.62916,-42.033997)"><rect
     style="fill:url(#linearGradient907);fill-opacity:1;stroke:none;stroke-width:24.9999;stroke-linecap:square;stroke-linejoin:round;stroke-miterlimit:3.65;paint-order:markers stroke fill"
     id="rect76"
     width="493"
     height="312"
     x="-535.034"
     y="-123.62916"
     transform="rotate(-90)" /><g
     transform="matrix(8.7755111,0,0,8.7700714,-392.26738,-1120.2044)"
     id="g16"
     style="stroke-width:0.43082"><g
       transform="matrix(0.13445,0,0,0.13445,32.901,139.31)"
       id="g15"
       style="stroke-width:0.43082"><g
         transform="matrix(1.0095,0,0,0.99224,-0.92822,-0.83095)"
         fill="#ff2e88"
         id="g10"
         style="stroke-width:0.43082"><rect
           x="43.125"
           y="47.431"
           width="140.36"
           height="115.03"
           fill-opacity="0.11492"
           stroke-width="1.83396"
           id="rect4" /><g
           stroke="#ff2e88"
           stroke-width="0.720072"
           id="g9"><path
             d="M 54.463,52.469 H 46.0706 A 2.1106,2.1088 0 0 1 43.96,50.3701 c 0,-1.1539 0.94577,-2.0989 2.1106,-2.0989 h 8.4024 a 2.1006,2.0989 0 0 1 0,4.1978 z m 25.217,0 H 71.2876 A 2.1106,2.1088 0 0 1 69.187,50.3701 c 0,-1.1539 0.94576,-2.0989 2.1006,-2.0989 H 79.69 A 2.100606,2.0989059 0 0 1 79.7,52.469 Z M 54.463,161.629 H 46.0706 A 2.1106,2.1088 0 0 1 43.96,159.5401 c 0,-1.1638 0.94577,-2.1088 2.1106,-2.1088 h 8.4024 a 2.1006,2.0989 0 0 1 0,4.1978 z m 25.217,0 h -8.3924 a 2.1106,2.1088 0 0 1 -2.1006,-2.0889 c 0,-1.1638 0.94576,-2.1088 2.1006,-2.1088 H 79.69 a 2.100606,2.0989059 0 0 1 0.01,4.1978 z M 104.897,52.469 H 96.4946 A 2.1106,2.1088 0 0 1 94.394,50.3701 c 0,-1.1539 0.94577,-2.0989 2.0906,-2.0989 h 8.4123 a 2.1006,2.0989 0 0 1 0,4.1978 z m 25.207,0 h -8.4024 a 2.1106,2.1088 0 0 1 -2.0906,-2.0989 2.0906,2.0889 0 0 1 2.0906,-2.0989 h 8.4024 a 2.100606,2.0989059 0 0 1 0.01,4.1978 z m 25.217,0 h -8.4024 a 2.1106,2.1088 0 0 1 -2.1006,-2.0989 c 0,-1.1539 0.94576,-2.0989 2.0906,-2.0989 h 8.4123 a 2.1006,2.0989 0 0 1 0,4.1978 z m 25.217,0 h -8.4124 a 2.1106,2.1088 0 0 1 -2.0906,-2.0989 2.0906,2.0889 0 0 1 2.0906,-2.0989 h 8.4124 a 2.1006,2.0989 0 0 1 0,4.1978 z M 46.068,86.051 a 2.1106,2.1088 0 0 1 -2.1106,-2.0889 v -8.4055 a 2.1106,2.1088 0 0 1 4.2012,0 v 8.3956 a 2.0906,2.0889 0 0 1 -2.0906,2.0989 z"
             id="path4"
             style="stroke-width:0.720072" /><path
             d="m 46.071,60.864 a 2.1106,2.1088 0 0 1 -2.1106,-2.0989 v -8.3956 a 2.1106,2.1088 0 0 1 4.2012,0 v 8.3956 A 2.0906,2.0889 0 0 1 46.071,60.854 Z m 0,75.57 a 2.1106,2.1088 0 0 1 -2.1106,-2.089 v -8.4055 a 2.1106,2.1088 0 0 1 4.2012,0 v 8.4055 a 2.0906,2.0889 0 0 1 -2.0906,2.089 z m 0,25.197 a 2.1106,2.1088 0 0 1 -2.1106,-2.0889 v -8.4055 a 2.1106,2.1088 0 0 1 4.2012,0 v 8.3956 a 2.0906,2.0889 0 0 1 -2.0906,2.0989 z m 0,-50.383 a 2.1106,2.1088 0 0 1 -2.1106,-2.0989 v -8.3956 a 2.1106,2.1088 0 0 1 4.2012,0 v 8.3956 a 2.0906,2.0889 0 0 1 -2.0906,2.0989 z m 134.47,-25.197 a 2.1106,2.1088 0 0 1 -2.1006,-2.0889 v -8.4055 a 2.1006,2.0989 0 0 1 4.2012,0 v 8.3956 c 0,1.1638 -0.94578,2.0989 -2.1006,2.0989 z m 0,-25.187 a 2.1106,2.1088 0 0 1 -2.1006,-2.0989 v -8.3956 a 2.100606,2.098906 0 0 1 4.2012,-0.01 v 8.4055 a 2.0906,2.0889 0 0 1 -2.1006,2.0889 z m 0,50.383 a 2.1106,2.1088 0 0 1 -2.1006,-2.0989 v -8.3956 a 2.100606,2.098906 0 0 1 4.2012,-0.01 v 8.4055 c 0,1.1539 -0.94578,2.0989 -2.1006,2.0989 z"
             id="path5"
             style="stroke-width:0.720072" /><rect
             x="43.959999"
             y="48.271"
             width="4.2012"
             height="4.1978002"
             id="rect5"
             style="stroke-width:0.720072" /><rect
             x="178.44"
             y="48.271"
             width="4.2012"
             height="4.1978002"
             id="rect6"
             style="stroke-width:0.720072" /><rect
             x="43.959999"
             y="157.42999"
             width="4.2012"
             height="4.1978002"
             id="rect7"
             style="stroke-width:0.720072" /><path
             d="m 178.45,159.52 v -8.3956 a 2.1006,2.0989 0 0 1 4.2012,0 v 8.3956 c 0,1.1539 -0.94577,2.0989 -2.1006,2.0989 A 2.1106,2.1088 0 0 1 178.45,159.53 Z"
             id="path7"
             style="stroke-width:0.720072" /><path
             d="m 169.93,159.52 c 0,-1.1539 0.94577,-2.089 2.1006,-2.089 h 8.4123 a 2.0956,2.0939 0 0 1 0,4.1878 h -8.4123 a 2.1106,2.1088 0 0 1 -2.0906,-2.0889 z"
             id="path8"
             style="stroke-width:0.720072" /><rect
             transform="rotate(90)"
             x="157.42999"
             y="-182.64"
             width="4.1978002"
             height="4.2012"
             id="rect8"
             style="stroke-width:0.720072" /><path
             d="m 180.47,136.39 a 2.1106,2.1088 0 0 1 -2.1006,-2.0989 v -8.4055 a 2.1006,2.0989 0 0 1 4.2012,0 v 8.4055 A 2.0906,2.0889 0 0 1 180.47,136.38 Z m -75.612,25.197 h -8.4024 a 2.1106,2.1088 0 0 1 -2.1006,-2.0989 c 0,-1.1539 0.94577,-2.0989 2.0906,-2.0989 h 8.4123 c 1.1548,0 2.1006,0.94498 2.1006,2.0989 0,1.1539 -0.94577,2.0989 -2.1006,2.0989 z m 25.217,0 h -8.4123 a 2.1106,2.1088 0 0 1 -2.0906,-2.0989 2.0906,2.0889 0 0 1 2.0906,-2.0989 h 8.4123 a 2.1006,2.0989 0 0 1 0,4.1978 z m 25.207,0 h -8.4024 a 2.1106,2.1088 0 0 1 -2.1006,-2.0989 c 0,-1.1539 0.94575,-2.0989 2.0906,-2.0989 h 8.4123 a 2.100606,2.0989059 0 0 1 0.01,4.1978 z"
             id="path9"
             style="stroke-width:0.720072" /></g></g><g
         transform="matrix(0.99261,0,0,0.99261,2.3511,2.4994)"
         stroke-width="0.434008"
         id="g11">
        <rect
   transform="matrix(4.6409,-4.6409,4.5301,4.5301,-16.32,158.04)"
   x="17.67"
   y="4.0700002"
   width="2.3299999"
   height="24.77"
   rx="0.26028395"
   ry="0.26665148"
   stroke="#ffffff"
   stroke-linejoin="round"
   stroke-width="0.212786"
   id="rect10" /><path
   d="m 86.97,91.62 5.15,-5.15 a 4,4 0 0 1 5.67,0 l 21.35,21.35 -10.81,10.82 -21.36,-21.36 a 4,4 0 0 1 0,-5.66 z"
   color="#000000"
   color-rendering="auto"
   dominant-baseline="auto"
   fill="#ffffff"
   image-rendering="auto"
   shape-rendering="auto"
   solid-color="#000000"
   stop-color="#000000"
   style="font-variant-ligatures:normal;font-variant-position:normal;font-variant-caps:normal;font-variant-numeric:normal;font-variant-alternates:normal;font-variant-east-asian:normal;font-feature-settings:normal;font-variation-settings:normal;text-indent:0;text-decoration-line:none;text-decoration-style:solid;text-decoration-color:#000000;text-transform:none;text-orientation:mixed;white-space:normal;shape-padding:0;shape-margin:0;inline-size:0;isolation:auto;mix-blend-mode:normal;stroke-width:0.434008"
   id="path10" />
        <path
   d="m 86.29,90.93 a 5,5 0 0 0 -0.03,7.06 l 33.04,33.3 12.22,-12.23 -33.03,-33.3 a 5,5 0 0 0 -7.05,0.02 z m 1.37,1.37 5.15,-5.15 a 3,3 0 0 1 4.28,0.02 c -6.82,5.18 -4.2,2.91 -9.41,9.41 A 3,3 0 0 1 87.66,92.3 Z"
   color="#000000"
   color-rendering="auto"
   dominant-baseline="auto"
   fill="#ffffff"
   image-rendering="auto"
   shape-rendering="auto"
   solid-color="#000000"
   stop-color="#000000"
   style="font-variant-ligatures:normal;font-variant-position:normal;font-variant-caps:normal;font-variant-numeric:normal;font-variant-alternates:normal;font-variant-east-asian:normal;font-feature-settings:normal;font-variation-settings:normal;text-indent:0;text-decoration-line:none;text-decoration-style:solid;text-decoration-color:#000000;text-transform:none;text-orientation:mixed;white-space:normal;shape-padding:0;shape-margin:0;inline-size:0;isolation:auto;mix-blend-mode:normal;stroke-width:0.434008"
   id="path11" />
    </g><g
         transform="matrix(8.0101,0,0,8.0101,-273.16,-1134.7)"
         fill="#ffffff"
         fill-rule="evenodd"
         stroke="#ffffff"
         id="g14"
         style="stroke-width:0.43082"><path
           transform="matrix(0.23836,0,0,0.23836,42.147,113.61)"
           d="m 37.012,168.44 c -0.91696,0 -2.877,-6.9055 -3.5254,-7.5539 -0.6484,-0.6484 -7.5539,-2.6084 -7.5539,-3.5254 0,-0.91696 6.9055,-2.877 7.5539,-3.5254 0.6484,-0.6484 2.6084,-7.5539 3.5254,-7.5539 0.917,0 2.877,6.9055 3.5254,7.5539 0.6484,0.6484 7.5539,2.6084 7.5539,3.5254 0,0.91697 -6.9055,2.877 -7.5539,3.5254 -0.6484,0.6484 -2.6084,7.5539 -3.5254,7.5539 z"
           stroke-width="0.223074"
           id="path12" /><path
           transform="matrix(0.19455,0,0,0.19455,33.941,124.43)"
           d="m 37.012,168.44 c -0.91696,0 -2.877,-6.9055 -3.5254,-7.5539 -0.6484,-0.6484 -7.5539,-2.6084 -7.5539,-3.5254 0,-0.91696 6.9055,-2.877 7.5539,-3.5254 0.6484,-0.6484 2.6084,-7.5539 3.5254,-7.5539 0.917,0 2.877,6.9055 3.5254,7.5539 0.6484,0.6484 7.5539,2.6084 7.5539,3.5254 0,0.91697 -6.9055,2.877 -7.5539,3.5254 -0.6484,0.6484 -2.6084,7.5539 -3.5254,7.5539 z"
           stroke-width="0.24661"
           id="path13" /><path
           transform="matrix(0.30265,0,0,0.30265,32.642,100.3)"
           d="m 37.012,168.44 c -0.91696,0 -2.877,-6.9055 -3.5254,-7.5539 -0.6484,-0.6484 -7.5539,-2.6084 -7.5539,-3.5254 0,-0.91696 6.9055,-2.877 7.5539,-3.5254 0.6484,-0.6484 2.6084,-7.5539 3.5254,-7.5539 0.917,0 2.877,6.9055 3.5254,7.5539 0.6484,0.6484 7.5539,2.6084 7.5539,3.5254 0,0.91697 -6.9055,2.877 -7.5539,3.5254 -0.6484,0.6484 -2.6084,7.5539 -3.5254,7.5539 z"
           stroke-width="0.246248"
           id="path14" /></g></g></g></g><g
   inkscape:groupmode="layer"
   id="layer6"
   inkscape:label="Symbols"
   style="display:inline"
   transform="translate(123.62916,-42.033997)" /><g
   inkscape:groupmode="layer"
   id="layer5"
   inkscape:label="Highlights"
   style="display:inline"
   sodipodi:insensitive="true"
   transform="translate(123.62916,-42.033997)" /><g
   inkscape:groupmode="layer"
   id="layer3"
   inkscape:label="Border"
   style="display:inline"
   sodipodi:insensitive="true"
   transform="translate(123.62916,-42.033997)" /></svg>
