<?xml version="1.0" encoding="UTF-8" standalone="no"?>
<svg
   width="128"
   height="128"
   version="1.1"
   viewBox="0 0 33.867 33.867"
   xml:space="preserve"
   id="svg41"
   sodipodi:docname="normcap_install.svg"
   inkscape:export-filename="normcap_install.1024.png"
   inkscape:export-xdpi="768"
   inkscape:export-ydpi="768"
   inkscape:version="1.4.2 (ebf0e940d0, 2025-05-08)"
   xmlns:inkscape="http://www.inkscape.org/namespaces/inkscape"
   xmlns:sodipodi="http://sodipodi.sourceforge.net/DTD/sodipodi-0.dtd"
   xmlns:xlink="http://www.w3.org/1999/xlink"
   xmlns="http://www.w3.org/2000/svg"
   xmlns:svg="http://www.w3.org/2000/svg"><sodipodi:namedview
     id="namedview41"
     pagecolor="#ffffff"
     bordercolor="#000000"
     borderopacity="0.25"
     inkscape:showpageshadow="2"
     inkscape:pageopacity="0.0"
     inkscape:pagecheckerboard="0"
     inkscape:deskcolor="#d1d1d1"
     inkscape:zoom="7.296875"
     inkscape:cx="64"
     inkscape:cy="64"
     inkscape:window-width="1803"
     inkscape:window-height="1165"
     inkscape:window-x="0"
     inkscape:window-y="0"
     inkscape:window-maximized="1"
     inkscape:current-layer="svg41" /><defs
     id="defs18"><linearGradient
       id="a"
       x1="144.49"
       x2="144.49"
       y1="266.85"
       y2="53.568"
       gradientTransform="matrix(1.0096 0 0 1.0096 -.10691 -.10393)"
       gradientUnits="userSpaceOnUse"><stop
         stop-color="#282829"
         offset="0"
         id="stop1" /><stop
         stop-color="#505053"
         offset="1"
         id="stop2" /></linearGradient><linearGradient
       id="c"
       x1="295.69"
       x2="234.41"
       y1="98.963"
       y2="14.483"
       gradientTransform="matrix(1.8293 0 0 1.8332 3.9674 140.62)"
       gradientUnits="userSpaceOnUse"><stop
         stop-color="#ba875d"
         offset="0"
         id="stop3" /><stop
         stop-color="#f2e8e0"
         offset="1"
         id="stop4" /><stop
         stop-color="#ba875d"
         stop-opacity="0"
         offset="1"
         id="stop5" /></linearGradient><linearGradient
       id="d"
       x1="410.58"
       x2="354.35"
       y1="93.311"
       y2="3.8422"
       gradientTransform="matrix(1.8293 0 0 1.8332 3.9674 140.62)"
       gradientUnits="userSpaceOnUse"><stop
         stop-color="#c9996a"
         offset="0"
         id="stop6" /><stop
         stop-color="#c9996a"
         stop-opacity=".49804"
         offset="1"
         id="stop7" /><stop
         stop-color="#c9996a"
         stop-opacity="0"
         offset="1"
         id="stop8" /></linearGradient><linearGradient
       id="e"
       x1="394.2"
       x2="396.42"
       y1="150.25"
       y2="112.33"
       gradientTransform="matrix(1.8293 0 0 1.8332 3.9674 140.62)"
       gradientUnits="userSpaceOnUse"
       xlink:href="#b" /><linearGradient
       id="b"><stop
         stop-color="#53301a"
         offset="0"
         id="stop9" /><stop
         stop-color="#8d5632"
         offset="1"
         id="stop10" /></linearGradient><linearGradient
       id="g"
       x1="346.82"
       x2="343.72"
       y1="136.25"
       y2="103.83"
       gradientTransform="matrix(-1.0327 0 0 1.8332 946.09 140.62)"
       gradientUnits="userSpaceOnUse"
       xlink:href="#b" /><linearGradient
       id="f"
       x1="369.25"
       x2="359.04"
       y1="106.82"
       y2="147.76"
       gradientTransform="matrix(1.8293 0 0 1.8332 3.9674 140.62)"
       gradientUnits="userSpaceOnUse"><stop
         stop-color="#fff"
         offset="0"
         id="stop11" /><stop
         stop-color="#fff"
         stop-opacity="0"
         offset="1"
         id="stop12" /></linearGradient><linearGradient
       id="h"
       x1="339.72"
       x2="340.13"
       y1="220.29"
       y2="159.55"
       gradientTransform="matrix(1.8293 0 0 1.8332 3.9674 140.62)"
       gradientUnits="userSpaceOnUse"><stop
         stop-color="#b8804d"
         offset="0"
         id="stop13" /><stop
         stop-color="#cd986e"
         offset="1"
         id="stop14" /></linearGradient><linearGradient
       id="i"
       x1="446.2"
       x2="399.75"
       y1="198.96"
       y2="162.13"
       gradientTransform="matrix(1.8293 0 0 1.8332 3.9674 140.62)"
       gradientUnits="userSpaceOnUse"><stop
         stop-color="#814b29"
         offset="0"
         id="stop15" /><stop
         stop-color="#a2633a"
         offset="1"
         id="stop16" /></linearGradient><linearGradient
       id="j"
       x1="426.15"
       x2="435.38"
       y1="115.36"
       y2="133.36"
       gradientTransform="matrix(1.8293 0 0 1.8332 3.9674 140.62)"
       gradientUnits="userSpaceOnUse"><stop
         stop-color="#f8f8f8"
         offset="0"
         id="stop17" /><stop
         stop-color="#f8f8f8"
         stop-opacity="0"
         offset="1"
         id="stop18" /></linearGradient></defs><g
     transform="translate(-32.279 -138.64)"
     id="g32"><g
       display="none"
       fill="none"
       stroke="currentColor"
       stroke-width=".26194"
       id="g18"><circle
         cx="49.213"
         cy="155.58"
         r="15.744"
         display="inline"
         enable-background="new"
         opacity=".2"
         style="paint-order:normal"
         id="circle18" /><rect
         x="35.585"
         y="141.95"
         width="27.255"
         height="27.255"
         rx="2.0965"
         ry="2.0965"
         display="inline"
         enable-background="new"
         opacity=".2"
         style="paint-order:normal"
         id="rect18" /></g><g
       transform="matrix(.13445 0 0 .13445 32.901 139.31)"
       id="g31">
        <rect
   x="11.119"
   y="10.808"
   width="220.41"
   height="220.41"
   rx="29.519"
   ry="29.519"
   enable-background="new"
   fill="url(#a)"
   style="paint-order:normal"
   id="rect19" />
    <g
   transform="matrix(1.0095 0 0 .99224 -.92822 -.83095)"
   fill="#ff2e88"
   id="g26"><rect
     x="43.125"
     y="47.431"
     width="140.36"
     height="115.03"
     fill-opacity=".11492"
     stroke-width="4.2569"
     id="rect20" /><g
     stroke="#ff2e88"
     stroke-width="1.6714"
     id="g25"><path
       d="m54.463 52.469h-8.3924a2.1106 2.1088 0 0 1-2.1106-2.0989c0-1.1539 0.94577-2.0989 2.1106-2.0989h8.4024a2.1006 2.0989 0 0 1 0 4.1978zm25.217 0h-8.3924a2.1106 2.1088 0 0 1-2.1006-2.0989c0-1.1539 0.94576-2.0989 2.1006-2.0989h8.4024a2.1006 2.0989 0 0 1 0.01 4.1978zm-25.217 109.16h-8.3924a2.1106 2.1088 0 0 1-2.1106-2.0889c0-1.1638 0.94577-2.1088 2.1106-2.1088h8.4024a2.1006 2.0989 0 0 1 0 4.1978zm25.217 0h-8.3924a2.1106 2.1088 0 0 1-2.1006-2.0889c0-1.1638 0.94576-2.1088 2.1006-2.1088h8.4024a2.1006 2.0989 0 0 1 0.01 4.1978zm25.217-109.16h-8.4024a2.1106 2.1088 0 0 1-2.1006-2.0989c0-1.1539 0.94577-2.0989 2.0906-2.0989h8.4123a2.1006 2.0989 0 0 1 0 4.1978zm25.207 0h-8.4024a2.1106 2.1088 0 0 1-2.0906-2.0989 2.0906 2.0889 0 0 1 2.0906-2.0989h8.4024a2.1006 2.0989 0 0 1 0.01 4.1978zm25.217 0h-8.4024a2.1106 2.1088 0 0 1-2.1006-2.0989c0-1.1539 0.94576-2.0989 2.0906-2.0989h8.4123a2.1006 2.0989 0 0 1 0 4.1978zm25.217 0h-8.4124a2.1106 2.1088 0 0 1-2.0906-2.0989 2.0906 2.0889 0 0 1 2.0906-2.0989h8.4124a2.1006 2.0989 0 0 1 0 4.1978zm-134.47 33.582a2.1106 2.1088 0 0 1-2.1106-2.0889v-8.4055a2.1106 2.1088 0 0 1 4.2012 0v8.3956a2.0906 2.0889 0 0 1-2.0906 2.0989z"
       id="path20" /><path
       d="m46.071 60.864a2.1106 2.1088 0 0 1-2.1106-2.0989v-8.3956a2.1106 2.1088 0 0 1 4.2012 0v8.3956a2.0906 2.0889 0 0 1-2.0906 2.0889zm0 75.57a2.1106 2.1088 0 0 1-2.1106-2.089v-8.4055a2.1106 2.1088 0 0 1 4.2012 0v8.4055a2.0906 2.0889 0 0 1-2.0906 2.089zm0 25.197a2.1106 2.1088 0 0 1-2.1106-2.0889v-8.4055a2.1106 2.1088 0 0 1 4.2012 0v8.3956a2.0906 2.0889 0 0 1-2.0906 2.0989zm0-50.383a2.1106 2.1088 0 0 1-2.1106-2.0989v-8.3956a2.1106 2.1088 0 0 1 4.2012 0v8.3956a2.0906 2.0889 0 0 1-2.0906 2.0989zm134.47-25.197a2.1106 2.1088 0 0 1-2.1006-2.0889v-8.4055a2.1006 2.0989 0 0 1 4.2012 0v8.3956c0 1.1638-0.94578 2.0989-2.1006 2.0989zm0-25.187a2.1106 2.1088 0 0 1-2.1006-2.0989v-8.3956a2.1006 2.0989 0 0 1 4.2012-0.01v8.4055a2.0906 2.0889 0 0 1-2.1006 2.0889zm0 50.383a2.1106 2.1088 0 0 1-2.1006-2.0989v-8.3956a2.1006 2.0989 0 0 1 4.2012-0.01v8.4055c0 1.1539-0.94578 2.0989-2.1006 2.0989z"
       id="path21" /><rect
       x="43.96"
       y="48.271"
       width="4.2012"
       height="4.1978"
       id="rect21" /><rect
       x="178.44"
       y="48.271"
       width="4.2012"
       height="4.1978"
       id="rect22" /><rect
       x="43.96"
       y="157.43"
       width="4.2012"
       height="4.1978"
       id="rect23" /><path
       d="m178.45 159.52v-8.3956a2.1006 2.0989 0 0 1 4.2012 0v8.3956c0 1.1539-0.94577 2.0989-2.1006 2.0989a2.1106 2.1088 0 0 1-2.1006-2.0889z"
       id="path23" /><path
       d="m169.93 159.52c0-1.1539 0.94577-2.089 2.1006-2.089h8.4123a2.0956 2.0939 0 0 1 0 4.1878h-8.4123a2.1106 2.1088 0 0 1-2.0906-2.0889z"
       id="path24" /><rect
       transform="rotate(90)"
       x="157.43"
       y="-182.64"
       width="4.1978"
       height="4.2012"
       id="rect24" /><path
       d="m180.47 136.39a2.1106 2.1088 0 0 1-2.1006-2.0989v-8.4055a2.1006 2.0989 0 0 1 4.2012 0v8.4055a2.0906 2.0889 0 0 1-2.1006 2.0889zm-75.612 25.197h-8.4024a2.1106 2.1088 0 0 1-2.1006-2.0989c0-1.1539 0.94577-2.0989 2.0906-2.0989h8.4123c1.1548 0 2.1006 0.94498 2.1006 2.0989 0 1.1539-0.94577 2.0989-2.1006 2.0989zm25.217 0h-8.4123a2.1106 2.1088 0 0 1-2.0906-2.0989 2.0906 2.0889 0 0 1 2.0906-2.0989h8.4123a2.1006 2.0989 0 0 1 0 4.1978zm25.207 0h-8.4024a2.1106 2.1088 0 0 1-2.1006-2.0989c0-1.1539 0.94575-2.0989 2.0906-2.0989h8.4123a2.1006 2.0989 0 0 1 0.01 4.1978z"
       id="path25" /></g></g><g
   transform="matrix(.99261 0 0 .99261 2.3511 2.4994)"
   stroke-width="1.0074"
   id="g27">
        <rect
   transform="matrix(4.6409 -4.6409 4.5301 4.5301 -16.32 158.04)"
   x="17.67"
   y="4.07"
   width="2.33"
   height="24.77"
   rx=".60416"
   ry=".61894"
   stroke="#fff"
   stroke-linejoin="round"
   stroke-width=".49391"
   id="rect26" /><path
   d="m86.97 91.62 5.15-5.15a4 4 0 0 1 5.67 0l21.35 21.35-10.81 10.82-21.36-21.36a4 4 0 0 1 0-5.66z"
   color="#000000"
   color-rendering="auto"
   dominant-baseline="auto"
   fill="#fff"
   image-rendering="auto"
   shape-rendering="auto"
   solid-color="#000000"
   stop-color="#000000"
   style="font-feature-settings:normal;font-variant-alternates:normal;font-variant-caps:normal;font-variant-east-asian:normal;font-variant-ligatures:normal;font-variant-numeric:normal;font-variant-position:normal;font-variation-settings:normal;inline-size:0;isolation:auto;mix-blend-mode:normal;shape-margin:0;shape-padding:0;text-decoration-color:#000000;text-decoration-line:none;text-decoration-style:solid;text-indent:0;text-orientation:mixed;text-transform:none;white-space:normal"
   id="path26" />
        <path
   d="m86.29 90.93a5 5 0 0 0-0.03 7.06l33.04 33.3 12.22-12.23-33.03-33.3a5 5 0 0 0-7.05 0.02zm1.37 1.37 5.15-5.15a3 3 0 0 1 4.28 0.02c-6.82 5.18-4.2 2.91-9.41 9.41a3 3 0 0 1-0.02-4.28z"
   color="#000000"
   color-rendering="auto"
   dominant-baseline="auto"
   fill="#fff"
   image-rendering="auto"
   shape-rendering="auto"
   solid-color="#000000"
   stop-color="#000000"
   style="font-feature-settings:normal;font-variant-alternates:normal;font-variant-caps:normal;font-variant-east-asian:normal;font-variant-ligatures:normal;font-variant-numeric:normal;font-variant-position:normal;font-variation-settings:normal;inline-size:0;isolation:auto;mix-blend-mode:normal;shape-margin:0;shape-padding:0;text-decoration-color:#000000;text-decoration-line:none;text-decoration-style:solid;text-indent:0;text-orientation:mixed;text-transform:none;white-space:normal"
   id="path27" />
    </g><g
   transform="matrix(8.0101 0 0 8.0101 -273.16 -1134.7)"
   fill="#fff"
   fill-rule="evenodd"
   stroke="#fff"
   id="g30"><path
     transform="matrix(.23836 0 0 .23836 42.147 113.61)"
     d="m37.012 168.44c-0.91696 0-2.877-6.9055-3.5254-7.5539s-7.5539-2.6084-7.5539-3.5254c0-0.91696 6.9055-2.877 7.5539-3.5254s2.6084-7.5539 3.5254-7.5539 2.877 6.9055 3.5254 7.5539 7.5539 2.6084 7.5539 3.5254c0 0.91697-6.9055 2.877-7.5539 3.5254s-2.6084 7.5539-3.5254 7.5539z"
     stroke-width=".51779"
     id="path28" /><path
     transform="matrix(.19455 0 0 .19455 33.941 124.43)"
     d="m37.012 168.44c-0.91696 0-2.877-6.9055-3.5254-7.5539s-7.5539-2.6084-7.5539-3.5254c0-0.91696 6.9055-2.877 7.5539-3.5254s2.6084-7.5539 3.5254-7.5539 2.877 6.9055 3.5254 7.5539 7.5539 2.6084 7.5539 3.5254c0 0.91697-6.9055 2.877-7.5539 3.5254s-2.6084 7.5539-3.5254 7.5539z"
     stroke-width=".57242"
     id="path29" /><path
     transform="matrix(.30265 0 0 .30265 32.642 100.3)"
     d="m37.012 168.44c-0.91696 0-2.877-6.9055-3.5254-7.5539s-7.5539-2.6084-7.5539-3.5254c0-0.91696 6.9055-2.877 7.5539-3.5254s2.6084-7.5539 3.5254-7.5539 2.877 6.9055 3.5254 7.5539 7.5539 2.6084 7.5539 3.5254c0 0.91697-6.9055 2.877-7.5539 3.5254s-2.6084 7.5539-3.5254 7.5539z"
     stroke-width=".57158"
     id="path30" /></g></g></g><g
     transform="matrix(.073074 0 0 .073478 -2.8458 10.702)"
     fill-rule="evenodd"
     stroke-width="7.265"
     id="g41"><g
       stroke-width="7.265"
       id="g35"><path
         d="m237.79 91.971-9.8327-17.456 72.299-25.601 29.498 49.043-0.57841 17.288-91.386-23.274z"
         fill="url(#c)"
         id="path32" /><path
         d="m329.25 97.905 97.941 20.875 42.057-19.181 9.7941-26.151-129.63-24.652-20.164 49.109z"
         fill="url(#d)"
         id="path33" /><path
         d="m329.76 97.286-0.57227 18.079 37.197 9.0393 28.613 35.592 32.619-41.807-97.858-20.903z"
         fill="url(#e)"
         id="path34" /><path
         d="m329.61 97.536-0.48942 18.079-20.938 8.7893-16.154 35.592-18.416-41.807 55.997-20.653z"
         fill="url(#g)"
         id="path35" /></g><g
       stroke-linejoin="round"
       id="g38"><path
         d="m329.65 97.449-72.39 26.89"
         fill="#c87137"
         stroke="#a16644"
         stroke-width="3.6325"
         id="path36" /><path
         d="m329.6 97.427-0.66984 30.189"
         fill="#c87137"
         stroke="#a16644"
         stroke-width="3.6325"
         id="path37" /><path
         d="m230.17 90.33 136.68 32.176 29.496 36.797-139.78-33.892-26.388-35.081z"
         fill="#a3693c"
         stroke="url(#f)"
         stroke-linecap="round"
         stroke-width="5.8919"
         id="path38" /></g><path
       d="m256.58 125.31 138.88 33.553-0.79241 156.4-132.36-42.807-5.7298-147.14z"
       fill="url(#h)"
       stroke-width="7.265"
       id="path39" /><path
       d="m395.41 158.85 65.147-33.491-3.6482 147.82-62.258 42.077 0.75889-156.41z"
       fill="url(#i)"
       stroke-width="7.265"
       id="path40" /><path
       d="m395.4 159.04 64.362-32.81 33.589-38.548-71.295 28.751z"
       fill="#71472d"
       stroke="url(#j)"
       stroke-linecap="round"
       stroke-linejoin="round"
       stroke-width="3.6325"
       id="path41" /></g></svg>
