<svg xmlns="http://www.w3.org/2000/svg" xmlns:xlink="http://www.w3.org/1999/xlink" xml:space="preserve" width="240" height="240" viewBox="0 0 240 240">
    <defs>
        <linearGradient id="a">
            <stop offset="0" style="stop-color:#282829;stop-opacity:1"/>
            <stop offset="1" style="stop-color:#505053;stop-opacity:1"/>
        </linearGradient>
        <linearGradient xlink:href="#a" id="b" x1="35" x2="253" y1="156" y2="156" gradientTransform="rotate(-90 143.75 155.75)" gradientUnits="userSpaceOnUse"/>
    </defs>
    <g style="display:inline">
        <rect width="220" height="220" x="34" y="47" rx="50" ry="50" style="color:#bebebe;display:inline;overflow:visible;visibility:visible;opacity:.1;fill:#000;fill-opacity:1;fill-rule:nonzero;stroke:none;stroke-width:0;marker:none;enable-background:accumulate" transform="translate(-24 -36)"/>
    </g>
    <g style="display:inline">
        <path d="M60 10a49.38 49.38 0 0 0-49.5 49.5v120A49.38 49.38 0 0 0 60 229h120a49.38 49.38 0 0 0 49.5-49.5v-120A49.38 49.38 0 0 0 180 10Z" style="color:#bebebe;display:inline;enable-background:accumulate;fill:url(#b);fill-opacity:1;fill-rule:nonzero;marker:none;overflow:visible;stroke:none;stroke-width:2;visibility:visible"/>
    </g>
    <g style="display:inline">
        <path d="M60 11c-27.16 0-49 21.84-49 49v1c0-27.16 21.84-49 49-49h120c27.16 0 49 21.84 49 49v-1c0-27.16-21.84-49-49-49Z" style="color:#bebebe;display:inline;enable-background:accumulate;fill:#fff;fill-opacity:1;fill-rule:nonzero;marker:none;opacity:.13;overflow:visible;stroke:none;stroke-width:0;visibility:visible"/>
        <path d="M180 230c27.16 0 49-21.84 49-49v-1c0 27.16-21.84 49-49 49H60c-27.16 0-49-21.84-49-49v1c0 27.16 21.84 49 49 49Z" style="color:#bebebe;display:inline;enable-background:accumulate;fill:#000;fill-opacity:1;fill-rule:nonzero;marker:none;opacity:.41;overflow:visible;stroke:none;stroke-width:0;visibility:visible"/>
        <path d="M60 229c-27.16 0-49-21.84-49-49v-1c0 27.16 21.84 49 49 49h120c27.16 0 49-21.84 49-49v1c0 27.16-21.84 49-49 49Z" style="color:#bebebe;display:inline;enable-background:accumulate;fill:#fff;fill-opacity:1;fill-rule:nonzero;marker:none;opacity:.1;overflow:visible;stroke:none;stroke-width:0;visibility:visible"/>
    </g>
    <g style="display:inline">
        <path d="M60 10c-27.7 0-50 22.3-50 50v120c0 27.7 22.3 50 50 50h120c27.7 0 50-22.3 50-50V60c0-27.7-22.3-50-50-50Zm0 1h120c27.16 0 49 21.84 49 49v120c0 27.16-21.84 49-49 49H60c-27.16 0-49-21.84-49-49V60c0-27.16 21.84-49 49-49Z" style="color:#bebebe;display:inline;enable-background:accumulate;fill:#000;fill-opacity:1;fill-rule:nonzero;marker:none;opacity:.41;overflow:visible;stroke:none;stroke-width:0;visibility:visible"/>
    </g>
    <rect width="139.29" height="113.97" x="43.65" y="47.97" style="fill:#ff2e88;fill-opacity:.114921;stroke-width:4.22095"/>
    <path d="M54.2 52.19h-8.43a2.12 2.12 0 0 1-2.12-2.11c0-1.16.95-2.11 2.12-2.11h8.44a2.1 2.1 0 0 1 0 4.22zm25.33 0H71.1a2.12 2.12 0 0 1-2.11-2.11c0-1.16.95-2.11 2.11-2.11h8.44a2.11 2.11 0 0 1 .01 4.22zM54.2 161.93h-8.43a2.12 2.12 0 0 1-2.12-2.1c0-1.17.95-2.12 2.12-2.12h8.44a2.1 2.1 0 0 1 0 4.22zm25.33 0H71.1a2.12 2.12 0 0 1-2.11-2.1c0-1.17.95-2.12 2.11-2.12h8.44a2.11 2.11 0 0 1 .01 4.22zm25.33-109.74h-8.44a2.12 2.12 0 0 1-2.11-2.11c0-1.16.95-2.11 2.1-2.11h8.45a2.1 2.1 0 0 1 0 4.22zm25.32 0h-8.44a2.12 2.12 0 0 1-2.1-2.11 2.1 2.1 0 0 1 2.1-2.11h8.44a2.11 2.11 0 0 1 .01 4.22zm25.33 0h-8.44a2.12 2.12 0 0 1-2.11-2.11c0-1.16.95-2.11 2.1-2.11h8.45a2.11 2.11 0 0 1 0 4.22zm25.33 0h-8.45a2.12 2.12 0 0 1-2.1-2.11 2.1 2.1 0 0 1 2.1-2.11h8.45a2.1 2.1 0 0 1 0 4.22zM45.77 85.95a2.12 2.12 0 0 1-2.12-2.1V75.4a2.12 2.12 0 0 1 4.22 0v8.44a2.1 2.1 0 0 1-2.1 2.11z" style="fill:#ff2e88;fill-opacity:1;stroke-width:4.22095"/>
    <path d="M45.77 60.63a2.12 2.12 0 0 1-2.12-2.11v-8.44a2.12 2.12 0 0 1 4.22 0v8.44a2.1 2.1 0 0 1-2.1 2.1zm0 75.97a2.12 2.12 0 0 1-2.12-2.1v-8.45a2.12 2.12 0 0 1 4.22 0v8.45a2.1 2.1 0 0 1-2.1 2.1zm0 25.33a2.12 2.12 0 0 1-2.12-2.1v-8.45a2.12 2.12 0 0 1 4.22 0v8.44a2.1 2.1 0 0 1-2.1 2.11zm0-50.65a2.12 2.12 0 0 1-2.12-2.11v-8.44a2.12 2.12 0 0 1 4.22 0v8.44a2.1 2.1 0 0 1-2.1 2.11zm135.07-25.33a2.12 2.12 0 0 1-2.11-2.1V75.4a2.11 2.11 0 0 1 4.22 0v8.44c0 1.17-.95 2.11-2.11 2.11zm0-25.32a2.12 2.12 0 0 1-2.11-2.11v-8.44a2.1 2.1 0 0 1 4.22-.01v8.45a2.1 2.1 0 0 1-2.11 2.1zm0 50.65a2.12 2.12 0 0 1-2.11-2.11v-8.44a2.1 2.1 0 0 1 4.22-.01v8.45c0 1.16-.95 2.11-2.11 2.11z" style="fill:#ff2e88;fill-opacity:1;stroke-width:4.22095"/>
    <rect width="4.22" height="4.22" x="43.65" y="47.97" style="fill:#ff2e88;fill-opacity:1;stroke-width:4.22095"/>
    <rect width="4.22" height="4.22" x="178.73" y="47.97" style="fill:#ff2e88;fill-opacity:1;stroke-width:4.22095"/>
    <rect width="4.22" height="4.22" x="43.65" y="157.71" style="fill:#ff2e88;fill-opacity:1;stroke-width:4.22095"/>
    <path d="M178.74 159.81v-8.44a2.11 2.11 0 0 1 4.22 0v8.44c0 1.16-.95 2.11-2.11 2.11a2.12 2.12 0 0 1-2.11-2.1z" style="fill:#ff2e88;fill-opacity:1;stroke-width:4.22095"/>
    <path d="M170.18 159.81c0-1.16.95-2.1 2.11-2.1h8.45a2.1 2.1 0 0 1 0 4.21h-8.45a2.12 2.12 0 0 1-2.1-2.1z" style="fill:#ff2e88;fill-opacity:1;stroke-width:4.22095"/>
    <rect width="4.22" height="4.22" x="157.71" y="-182.95" style="fill:#ff2e88;fill-opacity:1;stroke-width:4.22095" transform="rotate(90)"/>
    <path d="M180.77 136.56a2.12 2.12 0 0 1-2.11-2.11V126a2.1 2.1 0 0 1 4.22 0v8.45a2.1 2.1 0 0 1-2.11 2.1zm-75.95 25.33h-8.44a2.12 2.12 0 0 1-2.11-2.11c0-1.16.95-2.11 2.1-2.11h8.45c1.16 0 2.11.95 2.11 2.11s-.95 2.11-2.11 2.11zm25.33 0h-8.45a2.12 2.12 0 0 1-2.1-2.11 2.1 2.1 0 0 1 2.1-2.11h8.45a2.1 2.1 0 0 1 0 4.22zm25.32 0h-8.44a2.12 2.12 0 0 1-2.11-2.11c0-1.16.95-2.11 2.1-2.11h8.45a2.11 2.11 0 0 1 .01 4.22z" style="fill:#ff2e88;fill-opacity:1;stroke-width:4.22095"/>
    <rect width="2.33" height="24.77" x="17.67" y="4.07" rx=".63" ry=".63" style="fill:#3b3b3d;fill-opacity:1;stroke:#fff;stroke-width:.303647;stroke-linejoin:round;stroke-miterlimit:4;stroke-dasharray:none;stroke-opacity:1" transform="matrix(4.64088 -4.64088 4.53007 4.53007 -16.32 158.04)"/>
    <g style="opacity:1">
        <path d="m86.97 91.62 5.15-5.15a4 4 0 0 1 5.67 0l21.35 21.35-10.81 10.82-21.36-21.36a4 4 0 0 1 0-5.66Z" style="baseline-shift:baseline;clip-rule:nonzero;color:#000;color-interpolation:sRGB;color-interpolation-filters:linearRGB;color-rendering:auto;direction:ltr;display:inline;dominant-baseline:auto;enable-background:accumulate;fill:#fff;fill-opacity:1;fill-rule:nonzero;font-family:sans-serif;font-feature-settings:normal;font-size:medium;font-stretch:normal;font-style:normal;font-variant:normal;font-variant-alternates:normal;font-variant-caps:normal;font-variant-east-asian:normal;font-variant-ligatures:normal;font-variant-numeric:normal;font-variant-position:normal;font-variation-settings:normal;font-weight:400;image-rendering:auto;inline-size:0;isolation:auto;letter-spacing:normal;line-height:normal;mix-blend-mode:normal;overflow:visible;shape-margin:0;shape-padding:0;shape-rendering:auto;solid-color:#000;solid-opacity:1;stop-color:#000;stop-opacity:1;stroke:none;stroke-dasharray:none;stroke-dashoffset:0;stroke-linecap:butt;stroke-linejoin:round;stroke-miterlimit:4;stroke-opacity:1;stroke-width:1.9689576814814032;text-align:start;text-anchor:start;text-decoration:none;text-decoration-color:#000;text-decoration-line:none;text-decoration-style:solid;text-indent:0;text-orientation:mixed;text-rendering:auto;text-transform:none;vector-effect:none;visibility:visible;white-space:normal;word-spacing:normal;writing-mode:lr-tb"/>
        <path d="M86.29 90.93a5 5 0 0 0-.03 7.06l33.04 33.3 12.22-12.23-33.03-33.3a5 5 0 0 0-7.05.02Zm1.37 1.37 5.15-5.15a3 3 0 0 1 4.28.02c-6.82 5.18-4.2 2.91-9.41 9.41a3 3 0 0 1-.02-4.28Z" style="color:#000;font-style:normal;font-variant:normal;font-weight:400;font-stretch:normal;font-size:medium;line-height:normal;font-family:sans-serif;font-variant-ligatures:normal;font-variant-position:normal;font-variant-caps:normal;font-variant-numeric:normal;font-variant-alternates:normal;font-variant-east-asian:normal;font-feature-settings:normal;font-variation-settings:normal;text-indent:0;text-align:start;text-decoration:none;text-decoration-line:none;text-decoration-style:solid;text-decoration-color:#000;letter-spacing:normal;word-spacing:normal;text-transform:none;writing-mode:lr-tb;direction:ltr;text-orientation:mixed;dominant-baseline:auto;baseline-shift:baseline;text-anchor:start;white-space:normal;shape-padding:0;shape-margin:0;inline-size:0;clip-rule:nonzero;display:inline;overflow:visible;visibility:visible;isolation:auto;mix-blend-mode:normal;color-interpolation:sRGB;color-interpolation-filters:linearRGB;solid-color:#000;solid-opacity:1;vector-effect:none;fill:#fff;fill-opacity:1;fill-rule:nonzero;stroke:none;stroke-linecap:butt;stroke-linejoin:round;stroke-miterlimit:4;stroke-dasharray:none;stroke-dashoffset:0;stroke-opacity:1;color-rendering:auto;image-rendering:auto;shape-rendering:auto;text-rendering:auto;enable-background:accumulate;stop-color:#000;stop-opacity:1"/>
    </g>
    <path d="m114.88 73.25 14.63 5.46.67 15.6 9.72-12.22 15.05 4.18-8.63-13.02 8.63-13.02-15.05 4.18-9.72-12.22-.67 15.6Z" style="fill:#fff;fill-opacity:1;stroke:none;stroke-dasharray:none;stroke-linejoin:round;stroke-miterlimit:4;stroke-opacity:1;stroke-width:1.82387379685"/>
    <path d="m31.04 107.15 11.46 4.28.53 12.23 7.61-9.58 11.8 3.27-6.76-10.2 6.76-10.2-11.8 3.27-7.6-9.58-.54 12.23Z" style="fill:#fff;fill-opacity:1;stroke:none;stroke-dasharray:none;stroke-linejoin:round;stroke-miterlimit:4;stroke-opacity:1;stroke-width:1.823868024"/>
    <path d="m46.7 52.08 18.43 6.88.85 19.65 12.24-15.4 18.95 5.26-10.86-16.4 10.86-16.4-18.95 5.28-12.24-15.4-.85 19.65Z" style="fill:#fff;fill-opacity:1;stroke:none;stroke-dasharray:none;stroke-linejoin:round;stroke-miterlimit:4;stroke-opacity:1;stroke-width:1.8238720879599999"/>
</svg>
