<?xml version="1.0" encoding="UTF-8" standalone="no"?>
<svg
   xmlns:dc="http://purl.org/dc/elements/1.1/"
   xmlns:cc="http://creativecommons.org/ns#"
   xmlns:rdf="http://www.w3.org/1999/02/22-rdf-syntax-ns#"
   xmlns:svg="http://www.w3.org/2000/svg"
   xmlns="http://www.w3.org/2000/svg"
   xmlns:sodipodi="http://sodipodi.sourceforge.net/DTD/sodipodi-0.dtd"
   xmlns:inkscape="http://www.inkscape.org/namespaces/inkscape"
   viewBox="0 0 426.18036 424.05679"
   version="1.1"
   id="svg14"
   sodipodi:docname="settings.svg"
   inkscape:version="1.0.2 (e86c870879, 2021-01-15)"
   width="426.18036"
   height="424.05679"
   inkscape:export-filename="/home/holger/Code/normcap/src/normcap/resources/settings.png"
   inkscape:export-xdpi="6.307189"
   inkscape:export-ydpi="6.307189">
  <metadata
     id="metadata20">
    <rdf:RDF>
      <cc:Work
         rdf:about="">
        <dc:format>image/svg+xml</dc:format>
        <dc:type
           rdf:resource="http://purl.org/dc/dcmitype/StillImage" />
        <dc:title></dc:title>
      </cc:Work>
    </rdf:RDF>
  </metadata>
  <defs
     id="defs18" />
  <sodipodi:namedview
     pagecolor="#a6a6a6"
     bordercolor="#666666"
     borderopacity="1"
     objecttolerance="10"
     gridtolerance="10"
     guidetolerance="10"
     inkscape:pageopacity="0"
     inkscape:pageshadow="2"
     inkscape:window-width="1920"
     inkscape:window-height="1023"
     id="namedview16"
     showgrid="false"
     inkscape:zoom="0.6333638"
     inkscape:cx="215.5177"
     inkscape:cy="219.54695"
     inkscape:window-x="0"
     inkscape:window-y="0"
     inkscape:window-maximized="1"
     inkscape:current-layer="g6"
     inkscape:document-rotation="0"
     showguides="true"
     fit-margin-top="0"
     fit-margin-left="0"
     fit-margin-right="0"
     fit-margin-bottom="0" />
  <g
     stroke-linecap="round"
     stroke-width="33.805"
     id="g6"
     style="fill:#ff2e88;fill-opacity:1"
     transform="translate(19.21544,17.916789)">
    <path
       d="M 62.812,48.073 79.25,93.261 c -0.0355,0.0384 -0.0583,0.0866 -0.0937,0.125 l 0.125,0.375 c -6.9125,7.5338 -13.131,15.848 -18.5,24.906 l -49.5,-1.343 c -0.9816,2.224 -1.9852,4.445 -2.875,6.687 -1.2123,3.055 -2.331,6.105 -3.375,9.188 -1.0437,3.082 -2.0292,6.207 -2.9062,9.312 -0.78568,2.782 -1.4725,5.55 -2.125,8.344 l 40.5,27.094 c -0.0492,0.444 -0.0174,0.899 -0.0625,1.343 l 0.2813,0.188 c -0.4657,4.724 -0.6216,9.448 -0.625,14.156 h 88.937 c 0.018,-2.837 0.25099,-5.678 0.657,-8.469 0.405,-2.79 1,-5.544 1.781,-8.25 0.78,-2.705 1.732,-5.356 2.875,-7.937 1.143,-2.581 2.476,-5.082 3.969,-7.5 1.492,-2.418 3.139,-4.753 4.968,-6.969 1.83,-2.216 3.846,-4.306 6,-6.281 2.154,-1.975 4.441,-3.836 6.907,-5.531 2.465,-1.695 5.11,-3.249 7.875,-4.625 1.972,-0.982 3.947,-1.828 5.968,-2.594 2.021,-0.76601 4.07,-1.446 6.125,-2 2.055,-0.554 4.114,-0.99701 6.188,-1.344 0.974,-0.16299 1.961,-0.226 2.937,-0.34399 0.334,-0.043 0.666,-0.087 1,-0.125 0.76999,-0.081 1.543,-0.227 2.313,-0.28101 0.752,-0.052 1.498,-0.005 2.25,-0.031 0.85301,-0.037 1.706,-0.059 2.562,-0.063 0.46899,0.003 0.939,-0.043 1.407,-0.031 0.34399,0.009 0.687,0.048 1.031,0.063 1.717,0.057 3.437,0.21201 5.156,0.40601 7.378,0.834 14.746,2.857 21.75,6.344 22.117,11.01 34.826,32.864 34.969,55.562 h 89.031 c -0.001,-4.726 -0.21799,-9.477 -0.68799,-14.219 l 41,-27.437 c -0.011,-0.053 -0.05,-0.103 -0.062,-0.15601 -0.71201,-3.123 -1.498,-6.239 -2.375,-9.344 -0.87701,-3.105 -1.831,-6.199 -2.875,-9.281 -1.044,-3.083 -2.163,-6.133 -3.375,-9.188 -0.88,-2.217 -1.84,-4.429 -2.813,-6.625 l -49.124,1.344 c -0.32898,-0.55499 -0.72699,-1.074 -1.063,-1.625 h -0.31201 c -2.408,-3.953 -4.968,-7.775 -7.688,-11.438 -2.72,-3.662 -5.587,-7.169397 -8.594,-10.530997 l 16.688,-45.812 c -1.45,-1.2646 -2.891,-2.5309 -4.375,-3.75 -2.467,-2.0271 -4.976,-4.0064 -7.531,-5.9063 -2.557,-1.8998 -5.174,-3.7292 -7.813,-5.5 -2.639,-1.7707 -5.314,-3.485 -8.031,-5.125 -0.77798,-0.4691 -1.555,-0.9276 -2.344,-1.375 l -39,29.344 c -0.56799,-0.2489 -1.15,-0.4147 -1.719,-0.6563 l -0.093,0.0625 c -4.306,-1.8309 -8.704,-3.4373 -13.157,-4.875 -4.453,-1.4376 -8.958,-2.68 -13.531,-3.7187 l -0.062,-0.1563 c -0.023,-0.0049 -0.041,-0.0263 -0.063,-0.0312 l -14.031,-46.562 c -1.974,-0.20361 -3.925,-0.44845 -5.906,-0.59375 -3.185,-0.23352 -6.394,-0.3544 -9.594,-0.4375 -2.141,-0.055573 -4.289,-0.0383 -6.438,-0.03125 -1.075,0.011414 -2.145,-0.027863 -3.218,0 -3.201,0.083099 -6.378,0.23523 -9.563,0.46875 -1.013,0.074219 -2.021,0.22302 -3.031,0.3125 l -14,46.375 c -10.159,2.0969 -20.071,5.1804 -29.594,9.2188 l -39.375003,-29.594 c -1.3157,0.7538 -2.6388,1.466 -3.9375,2.25 -2.7169,1.6399 -5.3917,3.3544 -8.0312,5.125 -2.6393,1.7708 -5.2566,3.6002 -7.8125,5.5 -2.5561,1.8999 -5.064,3.8792 -7.5313,5.9063 -0.9804,0.8056 -1.9116,1.6713 -2.875,2.5 z m 181.78,39.281 c 1.36,0.0943 2.741,0.4516 4.031,1.0938 5.16,2.5689 7.223,8.7707 4.594,13.812 -2.63,5.042 -8.965,7.038 -14.125,4.469 -5.161,-2.569 -7.223,-8.7396 -4.594,-13.781 1.972,-3.7813 6.014,-5.8764 10.094,-5.5938 z m -148.88,47.281 c 1.3597,0.094 2.7411,0.45201 4.0312,1.094 5.16,2.569 7.223,8.74 4.594,13.781 -2.63,5.042 -8.9649,7.038 -14.125,4.469 -5.1604,-2.569 -7.2232,-8.74 -4.5938,-13.781 1.972,-3.782 6.0144,-5.845 10.094,-5.563 z"
       id="path2"
       style="fill:#ff2e88;fill-opacity:1;stroke-width:33.805;stroke-miterlimit:3.825;stroke-dasharray:none" />
    <path
       d="m 324.25,337.93 -16.437,-45.187 c 0.035,-0.039 0.058,-0.087 0.093,-0.125 l -0.125,-0.375 c 6.913,-7.534 13.131,-15.848 18.5,-24.907 l 49.5,1.344 c 0.982,-2.224 1.985,-4.445 2.875,-6.687 1.212,-3.055 2.331,-6.105 3.375,-9.188 1.044,-3.082 2.029,-6.207 2.906,-9.312 0.78598,-2.782 1.473,-5.55 2.125,-8.344 l -40.5,-27.094 c 0.05,-0.444 0.018,-0.899 0.063,-1.344 l -0.281,-0.187 c 0.465,-4.724 0.621,-9.448 0.625,-14.156 h -88.938 c -0.018,2.837 -0.25101,5.678 -0.65601,8.468 -0.405,2.791 -1.001,5.545 -1.781,8.25 -0.78099,2.706 -1.732,5.357 -2.875,7.938 -1.143,2.581 -2.477,5.082 -3.969,7.5 -1.492,2.418 -3.139,4.753 -4.969,6.969 -1.829,2.215 -3.846,4.306 -6,6.281 -2.154,1.975 -4.44,3.836 -6.906,5.531 -2.466,1.695 -5.11,3.249 -7.875,4.625 -1.973,0.982 -3.948,1.828 -5.969,2.594 -2.021,0.76601 -4.07,1.446 -6.125,2 -2.055,0.554 -4.113,0.99701 -6.187,1.344 -0.97499,0.16299 -1.961,0.22499 -2.938,0.34299 -0.334,0.043 -0.66501,0.088 -1,0.125 -0.76901,0.081 -1.543,0.22801 -2.312,0.28201 -0.752,0.052 -1.499,0.005 -2.25,0.031 -0.85399,0.037 -1.706,0.059 -2.563,0.062 -0.468,-0.002 -0.938,0.044 -1.406,0.032 -0.34399,-0.009 -0.687,-0.048 -1.031,-0.063 -1.718,-0.057 -3.437,-0.21201 -5.156,-0.40601 -7.379,-0.834 -14.747,-2.857 -21.75,-6.344 -22.117,-11.01 -34.827,-32.864 -34.969,-55.562 H 40.311996 c 9.99e-4,4.726 0.2181,9.477 0.6875,14.218 l -41,27.438 c 0.012024,0.053 0.050446,0.103 0.0625,0.15601 0.71211,3.123 1.498,6.239 2.375,9.344 0.877,3.105 1.8313,6.199 2.875,9.281 1.0437,3.083 2.1628,6.133 3.375,9.188 0.88008,2.217 1.8405,4.429 2.8125,6.625 l 49.125,-1.344 c 0.3285,0.55499 0.7267,1.074 1.0625,1.625 h 0.3125 c 2.4079,3.953 4.9672,7.775 7.6875,11.437 2.7203,3.663 5.587,7.17 8.5938,10.532 l -16.688,45.812 c 1.45,1.265 2.8912,2.531 4.375,3.75 2.4671,2.027 4.9752,4.007 7.5312,5.906 2.556,1.9 5.1733,3.73 7.8125,5.5 2.6393,1.771 5.3144,3.486 8.0313,5.125 0.7772,0.47 1.5551,0.92798 2.3437,1.375 L 130.6865,328.993 c 0.567,0.24902 1.149,0.414 1.718,0.65601 l 0.094,-0.063 c 4.305,1.831 8.703,3.438 13.156,4.875 4.453,1.438 8.959,2.681 13.532,3.719 l 0.062,0.156 c 0.022,0.005 0.04,0.027 0.063,0.032 l 14.031,46.562 c 1.973,0.20401 3.925,0.449 5.906,0.59399 3.185,0.23401 6.393,0.354 9.594,0.43701 2.14,0.056 4.289,0.039 6.437,0.032 1.076,-0.012 2.145,0.028 3.219,0 3.2,-0.083 6.378,-0.23599 9.563,-0.46899 1.012,-0.074 2.02,-0.22299 3.031,-0.31299 l 14,-46.375 c 10.158,-2.096 20.071,-5.18 29.594,-9.218 l 39.375,29.593 c 1.315,-0.75302 2.638,-1.465 3.937,-2.25 2.717,-1.639 5.392,-3.354 8.031,-5.125 2.64,-1.77 5.257,-3.6 7.813,-5.5 2.556,-1.899 5.064,-3.879 7.531,-5.906 0.98001,-0.80499 1.912,-1.671 2.875,-2.5 z M 142.47,298.649 c -1.36,-0.094 -2.741,-0.452 -4.031,-1.094 -5.161,-2.569 -7.224,-8.771 -4.594,-13.812 2.629,-5.042 8.964,-7.038 14.125,-4.469 5.16,2.569 7.223,8.74 4.594,13.781 -1.972,3.782 -6.015,5.877 -10.094,5.594 z m 148.88,-47.281 c -1.36,-0.094 -2.741,-0.45201 -4.031,-1.094 -5.161,-2.569 -7.224,-8.74 -4.594,-13.781 2.629,-5.042 8.964,-7.038 14.125,-4.469 5.16,2.569 7.223,8.739 4.594,13.781 -1.973,3.782 -6.015,5.845 -10.094,5.563 z"
       id="path4"
       style="fill:#ff2e88;fill-opacity:1" />
    <path
       id="path835"
       style="fill:none;fill-opacity:1;stroke:#560026;stroke-width:20;stroke-miterlimit:3.825;stroke-dasharray:none;stroke-opacity:1"
       d="m 352.26688,178.81888 42.67149,-28.55639 c -0.0115,-0.0552 -0.0526,-0.10745 -0.0651,-0.16262 -0.74104,-3.25035 -1.55907,-6.49316 -2.47183,-9.72478 -0.91276,-3.23162 -1.90564,-6.45206 -2.9922,-9.65974 -1.08656,-3.20872 -2.25118,-6.38258 -3.51259,-9.56216 -0.91588,-2.30741 -1.9145,-4.60961 -2.92716,-6.89517 l -51.12773,1.39855 c -0.34239,-0.57762 -0.75611,-1.1178 -1.10581,-1.69127 h -0.32524 c -2.50617,-4.1142 -5.17002,-8.09154 -8.00091,-11.90391 -2.83089,-3.811337 -5.81451,-7.462029 -8.9441,-10.960714 l 17.36782,-47.680715 c -1.50911,-1.31617 -3.00886,-2.634109 -4.55336,-3.902924 -2.56758,-2.109764 -5.17912,-4.169727 -7.83828,-6.147104 -2.66125,-1.977273 -5.38442,-3.881275 -8.131,-5.724288 -2.74659,-1.842908 -5.5309,-3.627117 -8.35867,-5.333995 -0.8097,-0.48823 -1.61813,-0.965428 -2.4393,-1.431072 l -40.58995,30.540376 c -0.59114,-0.25905 -1.19662,-0.431559 -1.78882,-0.683012 l -0.0975,0.06505 c -4.48154,-1.905563 -9.05806,-3.577472 -13.6926,-5.0738 -4.63454,-1.496225 -9.32346,-2.789342 -14.08289,-3.8704 l -0.065,-0.162621 c -0.0239,-0.0051 -0.0422,-0.02743 -0.0651,-0.03252 L 214.52776,-6.7977592 c -2.05448,-0.2119132 -4.08528,-0.4667377 -6.14704,-0.6179629 -3.31485,-0.2430429 -6.65441,-0.3688523 -9.98487,-0.4553411 -1.11414,-0.02892 -2.23093,-0.038837 -3.34794,-0.040655 -1.117,-0.00182 -2.23369,0.00446 -3.352,0.00813 -1.11883,0.01188 -2.23323,-0.028999 -3.34997,0 -3.3315,0.086488 -6.6375,0.2448226 -9.95234,0.4878655 -1.0543,0.077246 -2.10366,0.2321146 -3.15483,0.3252436 L 160.66802,41.175676 c -10.57316,2.18241 -20.889,5.391602 -30.80023,9.594687 L 88.887556,19.969791 c -1.369339,0.78454 -2.746379,1.525783 -4.098024,2.341754 -2.827662,1.706775 -5.61156,3.491192 -8.358667,5.333996 -2.746899,1.843012 -5.470901,3.747015 -8.130999,5.724288 -2.660307,1.977377 -5.270397,4.03734 -7.838283,6.147104 -1.020369,0.838452 -1.989532,1.739455 -2.992208,2.601949 L 74.576997,89.14911 c -0.03695,0.03997 -0.06073,0.09013 -0.09757,0.130098 L 74.609523,89.6695 C 67.415215,97.510527 60.9432,106.16404 55.355317,115.59142 L 3.837304,114.19287 c -1.0216178,2.31469 -2.0661325,4.62679 -2.99220774,6.96021 -1.26172293,3.17959 -2.42602996,6.35344 -3.51259166,9.56217 -1.0862495,3.20768 -2.1119783,6.46064 -3.0247317,9.69226 -0.8177105,2.89545 -1.5325307,5.77606 -2.2116318,8.684 l 42.1510999,28.19862 1.235387,32.1138 -42.6714836,28.55639 c 0.011449,0.0552 0.052559,0.10745 0.065048,0.16262 0.7410371,3.25036 1.5590703,6.49317 2.4718237,9.72479 0.9127639,3.23162 1.9056461,6.45205 2.9922077,9.65973 1.08656174,3.20873 2.25118102,6.38258 3.5125917,9.56216 0.9158759,2.30741 1.9144927,4.60962 2.9271598,6.89517 l 51.1277227,-1.39855 c 0.342392,0.57762 0.756108,1.1178 1.105816,1.69127 h 0.32524 c 2.506169,4.1142 5.170015,8.09154 8.000904,11.90392 2.830888,3.81133 5.81451,7.46202 8.944099,10.96071 l -17.367815,47.68071 c 1.509114,1.31617 3.00886,2.63411 4.55336,3.90292 2.567574,2.10977 5.179121,4.16973 7.838283,6.14711 2.661244,1.97727 5.384413,3.88127 8.130999,5.72429 2.746587,1.8429 5.530901,3.62711 8.358668,5.33399 0.809696,0.48823 1.618133,0.96543 2.439299,1.43107 L 128.8265,336.80186 c 0.59115,0.25905 1.19663,0.43156 1.78882,0.68301 l 0.0975,-0.065 c 4.48155,1.90556 9.05807,3.57747 13.69261,5.0738 4.63454,1.49623 9.32346,2.78934 14.08289,3.8704 l 0.065,0.16262 c 0.0239,0.005 0.0422,0.0274 0.065,0.0325 l 14.60333,48.46141 c 2.05448,0.21191 4.08527,0.46674 6.14703,0.61796 3.31485,0.24304 6.65441,0.36885 9.98487,0.45534 1.11414,0.0289 2.23094,0.0388 3.34794,0.0407 l 6e-5,2.1e-4 c 1.117,0.002 2.23369,-0.004 3.352,-0.008 1.11882,-0.0119 2.23322,0.029 3.34997,0 3.3315,-0.0865 6.6375,-0.24482 9.95234,-0.48787 1.0543,-0.0772 2.10365,-0.23211 3.15483,-0.32524 l 14.57075,-48.26615 c 10.57316,-2.18241 20.88899,-5.39161 30.80023,-9.59469 l 40.98023,30.80057 c 1.36934,-0.78454 2.74638,-1.52578 4.09802,-2.34175 2.82767,-1.70678 5.61157,-3.4912 8.35867,-5.334 2.7469,-1.84301 5.4709,-3.74701 8.131,-5.72429 2.66031,-1.97737 5.2704,-4.03734 7.83828,-6.1471 1.02037,-0.83845 1.98954,-1.73946 2.99221,-2.60195 L 313.17257,299.0737 c 0.0369,-0.04 0.0608,-0.0901 0.0975,-0.1301 l -0.1301,-0.39029 c 7.19431,-7.84102 13.66633,-16.49453 19.25421,-25.92192 l 51.51801,1.39855 c 1.02162,-2.31469 2.06613,-4.62678 2.99221,-6.96021 1.26172,-3.17958 2.42603,-6.35344 3.51259,-9.56216 1.08625,-3.20769 2.11198,-6.46064 3.02473,-9.69226 0.81771,-2.89545 1.53253,-5.77607 2.21163,-8.68401 l -42.1511,-28.19862 z"
       sodipodi:nodetypes="cccscccccccccccccccccccccccsscscccccccccccccccccccccccscccccccccccccccccccccccsccccsccccccsscccccccssccc" />
    <circle
       style="fill:none;stroke:#5d0028;stroke-width:20;stroke-linecap:square;stroke-linejoin:round;stroke-miterlimit:3.825;stroke-dasharray:none;stroke-opacity:1;paint-order:markers stroke fill"
       id="path838"
       cx="193.63716"
       cy="193.16937"
       r="59.38467"
       inkscape:transform-center-x="-2.8370346"
       inkscape:transform-center-y="-7.4009599" />
  </g>
</svg>
