<?xml version="1.0" encoding="UTF-8" standalone="no"?>
<!-- Created with Inkscape (http://www.inkscape.org/) -->

<svg
   width="128"
   height="127.99999"
   viewBox="0 0 33.866667 33.866665"
   version="1.1"
   id="svg1"
   inkscape:version="1.4.2 (ebf0e940d0, 2025-05-08)"
   sodipodi:docname="normcap.svg"
   xml:space="preserve"
   inkscape:export-filename="normcap.png"
   inkscape:export-xdpi="192"
   inkscape:export-ydpi="192"
   xmlns:inkscape="http://www.inkscape.org/namespaces/inkscape"
   xmlns:sodipodi="http://sodipodi.sourceforge.net/DTD/sodipodi-0.dtd"
   xmlns:xlink="http://www.w3.org/1999/xlink"
   xmlns="http://www.w3.org/2000/svg"
   xmlns:svg="http://www.w3.org/2000/svg"><sodipodi:namedview
     id="namedview1"
     pagecolor="#ffffff"
     bordercolor="currentColor"
     borderopacity="0.25"
     inkscape:showpageshadow="2"
     inkscape:pageopacity="0.0"
     inkscape:pagecheckerboard="0"
     inkscape:deskcolor="#d1d1d1"
     inkscape:document-units="px"
     inkscape:zoom="1"
     inkscape:cx="27"
     inkscape:cy="49"
     inkscape:window-width="1803"
     inkscape:window-height="1165"
     inkscape:window-x="0"
     inkscape:window-y="0"
     inkscape:window-maximized="1"
     inkscape:current-layer="g1"
     showgrid="true"><inkscape:grid
       id="grid21"
       units="px"
       originx="0"
       originy="0"
       spacingx="0.26458334"
       spacingy="0.26458334"
       empcolor="#0099e5"
       empopacity="0.30196078"
       color="#0099e5"
       opacity="0.14901961"
       empspacing="8"
       enabled="true"
       visible="true" /></sodipodi:namedview><defs
     id="defs1"><linearGradient
       id="linearGradient6"
       inkscape:collect="always"><stop
         style="stop-color:#282829;stop-opacity:1;"
         offset="0"
         id="stop6" /><stop
         style="stop-color:#505053;stop-opacity:1;"
         offset="1"
         id="stop7" /></linearGradient><linearGradient
       id="a">
            <stop
   offset="0"
   style="stop-color:#282829;stop-opacity:1"
   id="stop1" />
            <stop
   offset="1"
   style="stop-color:#505053;stop-opacity:1"
   id="stop2" />
        </linearGradient><linearGradient
       xlink:href="#a"
       id="b"
       x1="35"
       x2="253"
       y1="156"
       y2="156"
       gradientTransform="rotate(-90,143.75,155.75)"
       gradientUnits="userSpaceOnUse" /><linearGradient
       inkscape:collect="always"
       xlink:href="#linearGradient6"
       id="linearGradient7"
       x1="144.4899"
       y1="266.84787"
       x2="144.4899"
       y2="53.56805"
       gradientUnits="userSpaceOnUse"
       gradientTransform="matrix(1.0096154,0,0,1.0096154,-0.10690917,-0.10392825)" /></defs><g
     inkscape:label="Layer 1"
     inkscape:groupmode="layer"
     id="layer1"
     transform="translate(-32.279167,-138.64166)"
     style="display:inline"><g
       id="g2"
       inkscape:label="template"
       style="display:none"><circle
         cx="49.212509"
         cy="155.575"
         r="15.743801"
         id="circle2892"
         style="display:inline;opacity:0.2;fill:none;fill-opacity:1;stroke:currentColor;stroke-width:0.261937;stroke-linecap:butt;stroke-linejoin:miter;stroke-miterlimit:4;stroke-dasharray:none;stroke-dashoffset:0;stroke-opacity:1;marker:none;marker-start:none;marker-mid:none;marker-end:none;paint-order:normal;enable-background:new" /><rect
         ry="2.096508"
         rx="2.096508"
         y="141.94769"
         x="35.585205"
         height="27.254602"
         width="27.254602"
         id="rect2896"
         style="display:inline;opacity:0.2;fill:none;fill-opacity:1;stroke:currentColor;stroke-width:0.261937;stroke-linecap:butt;stroke-linejoin:miter;stroke-miterlimit:4;stroke-dasharray:none;stroke-dashoffset:0;stroke-opacity:1;marker:none;marker-start:none;marker-mid:none;marker-end:none;paint-order:normal;enable-background:new" /></g><g
       id="g1"
       transform="matrix(0.13444593,0,0,0.13444593,32.900996,139.30517)"
       inkscape:label="icon-old"
       style="display:inline;opacity:1"><g
         style="display:inline"
         id="g3"
         inkscape:label="background">
        <rect
   ry="29.519299"
   rx="29.519299"
   y="10.808496"
   x="11.118511"
   height="220.41078"
   width="220.41078"
   id="rect2896-3"
   style="display:inline;opacity:1;fill:url(#linearGradient7);fill-opacity:1;stroke:none;stroke-width:2.11831;stroke-linecap:butt;stroke-linejoin:miter;stroke-miterlimit:4;stroke-dasharray:none;stroke-dashoffset:0;stroke-opacity:1;marker:none;marker-start:none;marker-mid:none;marker-end:none;paint-order:normal;enable-background:new"
   inkscape:label="rect2896-dark" />
    </g><g
         id="g4"
         style="display:inline"
         inkscape:label="selection"
         transform="matrix(1.0094904,0,0,0.99224172,-0.92821988,-0.83094612)"><rect
           width="140.36057"
           height="115.03377"
           x="43.12471"
           y="47.430573"
           style="fill:#ff2e88;fill-opacity:0.114921;stroke-width:4.25687"
           id="rect6"
           inkscape:label="background" /><g
           id="g21"
           inkscape:label="border"
           style="display:inline"><path
             d="m 54.463384,52.468625 h -8.392433 a 2.1105526,2.1088367 0 0 1 -2.110553,-2.098889 c 0,-1.153893 0.945768,-2.098889 2.110553,-2.098889 h 8.402387 a 2.1005974,2.0988895 0 0 1 0,4.197778 z m 25.217119,0 H 71.28807 a 2.1105526,2.1088367 0 0 1 -2.100596,-2.098889 c 0,-1.153893 0.945765,-2.098889 2.100596,-2.098889 h 8.402389 a 2.1006033,2.0988955 0 0 1 0.01,4.197778 z M 54.463384,161.63077 h -8.392433 a 2.1105526,2.1088367 0 0 1 -2.110553,-2.08893 c 0,-1.16385 0.945768,-2.10884 2.110553,-2.10884 h 8.402387 a 2.1005987,2.0988908 0 0 1 0,4.19777 z m 25.217119,0 H 71.28807 a 2.1105526,2.1088367 0 0 1 -2.100596,-2.08893 c 0,-1.16385 0.945765,-2.10884 2.100596,-2.10884 h 8.402389 a 2.1006046,2.0988967 0 0 1 0.01,4.19777 z M 104.89762,52.468625 H 96.495234 A 2.1105526,2.1088367 0 0 1 94.39464,50.369736 c 0,-1.153893 0.945766,-2.098889 2.09064,-2.098889 h 8.41234 a 2.1005974,2.0988895 0 0 1 0,4.197778 z m 25.20718,0 h -8.40239 a 2.1105526,2.1088367 0 0 1 -2.09065,-2.098889 2.0906418,2.0889419 0 0 1 2.09065,-2.098889 h 8.40239 a 2.1006033,2.0988955 0 0 1 0.01,4.197778 z m 25.21711,0 h -8.40239 a 2.1105526,2.1088367 0 0 1 -2.10059,-2.098889 c 0,-1.153893 0.94576,-2.098889 2.09064,-2.098889 h 8.41234 a 2.1005974,2.0988895 0 0 1 0,4.197778 z m 25.21713,0 h -8.41236 a 2.1105526,2.1088367 0 0 1 -2.09064,-2.098889 2.0906418,2.0889419 0 0 1 2.09064,-2.098889 h 8.41236 a 2.1005974,2.0988895 0 0 1 0,4.197778 z M 46.070951,86.050854 a 2.1105526,2.1088367 0 0 1 -2.110553,-2.088941 v -8.405504 a 2.1105526,2.1088367 0 0 1 4.201194,0 v 8.395557 a 2.0906418,2.0889419 0 0 1 -2.090641,2.098888 z"
             style="fill:#ff2e88;fill-opacity:1;stroke:#ff2e88;stroke-width:1.67138;stroke-dasharray:none;stroke-opacity:1"
             id="path9" /><path
             d="m 46.070951,60.864183 a 2.1105526,2.1088367 0 0 1 -2.110553,-2.098889 v -8.395558 a 2.1105526,2.1088367 0 0 1 4.201194,0 v 8.395558 a 2.0906418,2.0889419 0 0 1 -2.090641,2.088942 z m 0,75.569977 a 2.1105526,2.1088367 0 0 1 -2.110553,-2.08895 v -8.40549 a 2.1105526,2.1088367 0 0 1 4.201194,0 v 8.40549 a 2.0906418,2.0889419 0 0 1 -2.090641,2.08895 z m 0,25.19661 a 2.1105526,2.1088367 0 0 1 -2.110553,-2.08893 v -8.40551 a 2.1105526,2.1088367 0 0 1 4.201194,0 v 8.39555 a 2.0906418,2.0889419 0 0 1 -2.090641,2.09889 z m 0,-50.38329 a 2.1105526,2.1088367 0 0 1 -2.110553,-2.09888 v -8.39557 a 2.1105526,2.1088367 0 0 1 4.201194,0 v 8.39557 a 2.0906418,2.0889419 0 0 1 -2.090641,2.09888 z M 180.53904,86.050854 a 2.1105526,2.1088367 0 0 1 -2.1006,-2.088941 v -8.405504 a 2.1006015,2.0988936 0 0 1 4.2012,0 v 8.395557 c 0,1.163838 -0.94578,2.098888 -2.1006,2.098888 z m 0,-25.186671 a 2.1105526,2.1088367 0 0 1 -2.1006,-2.098889 v -8.395558 a 2.1006075,2.0988997 0 0 1 4.2012,-0.01 v 8.405505 a 2.0906418,2.0889419 0 0 1 -2.1006,2.088942 z m 0,50.383297 a 2.1105526,2.1088367 0 0 1 -2.1006,-2.09888 v -8.39557 a 2.1006075,2.0988997 0 0 1 4.2012,-0.01 v 8.40552 c 0,1.15389 -0.94578,2.09888 -2.1006,2.09888 z"
             style="fill:#ff2e88;fill-opacity:1;stroke:#ff2e88;stroke-width:1.67138;stroke-dasharray:none;stroke-opacity:1"
             id="path15" /><rect
             width="4.2011943"
             height="4.1977782"
             x="43.960396"
             y="48.270855"
             style="fill:#ff2e88;fill-opacity:1;stroke:#ff2e88;stroke-width:1.67138;stroke-dasharray:none;stroke-opacity:1"
             id="rect15" /><rect
             width="4.2011943"
             height="4.1977782"
             x="178.43845"
             y="48.270855"
             style="fill:#ff2e88;fill-opacity:1;stroke:#ff2e88;stroke-width:1.67138;stroke-dasharray:none;stroke-opacity:1"
             id="rect16" /><rect
             width="4.2011943"
             height="4.1977782"
             x="43.960396"
             y="157.43298"
             style="fill:#ff2e88;fill-opacity:1;stroke:#ff2e88;stroke-width:1.67138;stroke-dasharray:none;stroke-opacity:1"
             id="rect17" /><path
             d="m 178.44839,159.52195 v -8.39556 a 2.1006015,2.0988936 0 0 1 4.2012,0 v 8.39556 c 0,1.15387 -0.94577,2.09887 -2.1006,2.09887 a 2.1105526,2.1088367 0 0 1 -2.1006,-2.08894 z"
             style="fill:#ff2e88;fill-opacity:1;stroke:#ff2e88;stroke-width:1.67138;stroke-dasharray:none;stroke-opacity:1"
             id="path17" /><path
             d="m 169.92653,159.52195 c 0,-1.1539 0.94577,-2.08895 2.10062,-2.08895 h 8.41233 a 2.0956197,2.0939159 0 0 1 0,4.18782 h -8.41233 a 2.1105526,2.1088367 0 0 1 -2.09064,-2.08894 z"
             style="fill:#ff2e88;fill-opacity:1;stroke:#ff2e88;stroke-width:1.67138;stroke-dasharray:none;stroke-opacity:1"
             id="path20" /><rect
             width="4.1977782"
             height="4.2011943"
             x="157.43298"
             y="-182.63965"
             style="fill:#ff2e88;fill-opacity:1;stroke:#ff2e88;stroke-width:1.67138;stroke-dasharray:none;stroke-opacity:1"
             transform="rotate(90)"
             id="rect20" /><path
             d="m 180.46936,136.39436 a 2.1105526,2.1088367 0 0 1 -2.10061,-2.09887 v -8.40551 a 2.1006015,2.0988936 0 0 1 4.2012,0 v 8.40551 a 2.0906418,2.0889419 0 0 1 -2.10059,2.08892 z m -75.61156,25.19663 h -8.402385 a 2.1105526,2.1088367 0 0 1 -2.100597,-2.09889 c 0,-1.1539 0.945766,-2.09888 2.090641,-2.09888 h 8.412341 c 1.15484,0 2.10061,0.94498 2.10061,2.09888 0,1.15389 -0.94577,2.09889 -2.10061,2.09889 z m 25.21713,0 h -8.41234 a 2.1105526,2.1088367 0 0 1 -2.09065,-2.09889 2.0906418,2.0889419 0 0 1 2.09065,-2.09888 h 8.41234 a 2.1005987,2.0988908 0 0 1 0,4.19777 z m 25.20716,0 h -8.40239 a 2.1105526,2.1088367 0 0 1 -2.10059,-2.09889 c 0,-1.1539 0.94575,-2.09888 2.09064,-2.09888 h 8.41234 a 2.1006046,2.0988967 0 0 1 0.01,4.19777 z"
             style="fill:#ff2e88;fill-opacity:1;stroke:#ff2e88;stroke-width:1.67138;stroke-dasharray:none;stroke-opacity:1"
             id="path21" /></g></g><g
         style="display:inline;opacity:1;stroke-width:1.00745"
         id="g14"
         inkscape:label="wand"
         transform="matrix(0.99260563,0,0,0.99260795,2.3510524,2.499368)">
        <rect
   width="2.3299999"
   height="24.77"
   x="17.67"
   y="4.0700002"
   rx="0.60416043"
   ry="0.61893868"
   style="display:inline;opacity:1;fill:#000000;fill-opacity:1;stroke:#ffffff;stroke-width:0.493908;stroke-linejoin:round;stroke-miterlimit:4;stroke-dasharray:none;stroke-opacity:1"
   transform="matrix(4.6408799,-4.6408799,4.5300701,4.5300701,-16.32,158.04)"
   id="rect21"
   inkscape:label="rect21" /><path
   d="m 86.97,91.62 5.15,-5.15 a 4,4 0 0 1 5.67,0 l 21.35,21.35 -10.81,10.82 -21.36,-21.36 a 4,4 0 0 1 0,-5.66 z"
   style="color:#000000;font-style:normal;font-variant:normal;font-weight:400;font-stretch:normal;font-size:medium;line-height:normal;font-family:sans-serif;font-variant-ligatures:normal;font-variant-position:normal;font-variant-caps:normal;font-variant-numeric:normal;font-variant-alternates:normal;font-variant-east-asian:normal;font-feature-settings:normal;font-variation-settings:normal;text-indent:0;text-align:start;text-decoration:none;text-decoration-line:none;text-decoration-style:solid;text-decoration-color:#000000;letter-spacing:normal;word-spacing:normal;text-transform:none;writing-mode:lr-tb;direction:ltr;text-orientation:mixed;dominant-baseline:auto;baseline-shift:baseline;text-anchor:start;white-space:normal;shape-padding:0;shape-margin:0;inline-size:0;clip-rule:nonzero;display:inline;overflow:visible;visibility:visible;isolation:auto;mix-blend-mode:normal;color-interpolation:sRGB;color-interpolation-filters:linearRGB;solid-color:#000000;solid-opacity:1;vector-effect:none;fill:#ffffff;fill-opacity:1;fill-rule:nonzero;stroke:none;stroke-width:1.98363;stroke-linecap:butt;stroke-linejoin:round;stroke-miterlimit:4;stroke-dasharray:none;stroke-dashoffset:0;stroke-opacity:1;color-rendering:auto;image-rendering:auto;shape-rendering:auto;text-rendering:auto;enable-background:accumulate;stop-color:#000000;stop-opacity:1"
   id="path13" />
        <path
   d="m 86.29,90.93 a 5,5 0 0 0 -0.03,7.06 l 33.04,33.3 12.22,-12.23 -33.03,-33.3 a 5,5 0 0 0 -7.05,0.02 z m 1.37,1.37 5.15,-5.15 a 3,3 0 0 1 4.28,0.02 c -6.82,5.18 -4.2,2.91 -9.41,9.41 A 3,3 0 0 1 87.66,92.3 Z"
   style="color:#000000;font-style:normal;font-variant:normal;font-weight:400;font-stretch:normal;font-size:medium;line-height:normal;font-family:sans-serif;font-variant-ligatures:normal;font-variant-position:normal;font-variant-caps:normal;font-variant-numeric:normal;font-variant-alternates:normal;font-variant-east-asian:normal;font-feature-settings:normal;font-variation-settings:normal;text-indent:0;text-align:start;text-decoration:none;text-decoration-line:none;text-decoration-style:solid;text-decoration-color:#000000;letter-spacing:normal;word-spacing:normal;text-transform:none;writing-mode:lr-tb;direction:ltr;text-orientation:mixed;dominant-baseline:auto;baseline-shift:baseline;text-anchor:start;white-space:normal;shape-padding:0;shape-margin:0;inline-size:0;clip-rule:nonzero;display:inline;overflow:visible;visibility:visible;isolation:auto;mix-blend-mode:normal;color-interpolation:sRGB;color-interpolation-filters:linearRGB;solid-color:#000000;solid-opacity:1;vector-effect:none;fill:#ffffff;fill-opacity:1;fill-rule:nonzero;stroke:none;stroke-width:1.00745;stroke-linecap:butt;stroke-linejoin:round;stroke-miterlimit:4;stroke-dasharray:none;stroke-dashoffset:0;stroke-opacity:1;color-rendering:auto;image-rendering:auto;shape-rendering:auto;text-rendering:auto;enable-background:accumulate;stop-color:#000000;stop-opacity:1"
   id="path14" />
    </g><g
         id="g10"
         inkscape:label="stars-new"
         style="display:inline;opacity:1;fill:#ffffff"
         transform="matrix(8.010083,0,0,8.010083,-273.16278,-1134.6823)"><path
           sodipodi:type="star"
           style="display:inline;fill:#ffffff;fill-rule:evenodd;stroke:#ffffff;stroke-width:0.517789"
           id="path18"
           inkscape:flatsided="false"
           sodipodi:sides="4"
           sodipodi:cx="37.011551"
           sodipodi:cy="157.35609"
           sodipodi:r1="11.079257"
           sodipodi:r2="4.9856658"
           sodipodi:arg1="1.5707963"
           sodipodi:arg2="2.3561945"
           inkscape:rounded="0.11"
           inkscape:randomized="2.7755576e-17"
           d="m 37.011551,168.43535 c -0.916962,0 -2.877008,-6.90547 -3.525398,-7.55386 -0.64839,-0.64839 -7.553859,-2.60843 -7.553859,-3.5254 0,-0.91696 6.905469,-2.877 7.553859,-3.52539 0.64839,-0.64839 2.608436,-7.55386 3.525398,-7.55386 0.916962,0 2.877008,6.90547 3.525398,7.55386 0.64839,0.64839 7.553859,2.60843 7.553859,3.52539 0,0.91697 -6.905469,2.87701 -7.553859,3.5254 -0.64839,0.64839 -2.608436,7.55386 -3.525398,7.55386 z"
           transform="matrix(0.23835718,0,0,0.23835718,42.146586,113.60673)" /><path
           sodipodi:type="star"
           style="display:inline;fill:#ffffff;fill-rule:evenodd;stroke:#ffffff;stroke-width:0.572421"
           id="path19"
           inkscape:flatsided="false"
           sodipodi:sides="4"
           sodipodi:cx="37.011551"
           sodipodi:cy="157.35609"
           sodipodi:r1="11.079257"
           sodipodi:r2="4.9856658"
           sodipodi:arg1="1.5707963"
           sodipodi:arg2="2.3561945"
           inkscape:rounded="0.11"
           inkscape:randomized="2.7755576e-17"
           d="m 37.011551,168.43535 c -0.916962,0 -2.877008,-6.90547 -3.525398,-7.55386 -0.64839,-0.64839 -7.553859,-2.60843 -7.553859,-3.5254 0,-0.91696 6.905469,-2.877 7.553859,-3.52539 0.64839,-0.64839 2.608436,-7.55386 3.525398,-7.55386 0.916962,0 2.877008,6.90547 3.525398,7.55386 0.64839,0.64839 7.553859,2.60843 7.553859,3.52539 0,0.91697 -6.905469,2.87701 -7.553859,3.5254 -0.64839,0.64839 -2.608436,7.55386 -3.525398,7.55386 z"
           transform="matrix(0.1945508,0,0,0.1945508,33.940547,124.4309)" /><path
           sodipodi:type="star"
           style="display:inline;fill:#ffffff;fill-rule:evenodd;stroke:#ffffff;stroke-width:0.571578"
           id="path6"
           inkscape:flatsided="false"
           sodipodi:sides="4"
           sodipodi:cx="37.011551"
           sodipodi:cy="157.35609"
           sodipodi:r1="11.079257"
           sodipodi:r2="4.9856658"
           sodipodi:arg1="1.5707963"
           sodipodi:arg2="2.3561945"
           inkscape:rounded="0.11"
           inkscape:randomized="2.7755576e-17"
           d="m 37.011551,168.43535 c -0.916962,0 -2.877008,-6.90547 -3.525398,-7.55386 -0.64839,-0.64839 -7.553859,-2.60843 -7.553859,-3.5254 0,-0.91696 6.905469,-2.877 7.553859,-3.52539 0.64839,-0.64839 2.608436,-7.55386 3.525398,-7.55386 0.916962,0 2.877008,6.90547 3.525398,7.55386 0.64839,0.64839 7.553859,2.60843 7.553859,3.52539 0,0.91697 -6.905469,2.87701 -7.553859,3.5254 -0.64839,0.64839 -2.608436,7.55386 -3.525398,7.55386 z"
           transform="matrix(0.3026458,0,0,0.3026458,32.642312,100.29664)" /></g></g></g></svg>
