<svg xmlns="http://www.w3.org/2000/svg" xml:space="preserve" width="221" height="221" viewBox="0 0 221 221">
    <path d="m12.54 143.2 19.82 7.34.9 21 13.17-16.45 20.38 5.62-11.68-17.52 11.68-17.52-20.38 5.63-13.16-16.45-.91 21Z" style="fill:#ff2e88;fill-opacity:1;paint-order:markers stroke fill;stroke:none;stroke-dasharray:none;stroke-linecap:square;stroke-linejoin:round;stroke-miterlimit:3.6500001;stroke-opacity:1;stroke-width:24.99998887689019"/>
    <path d="m105.66 58.01 24.47 9.09 1.13 25.96L147.5 72.7l25.17 6.96L158.24 58l14.43-21.66-25.17 6.96-16.24-20.34-1.13 25.96Z" style="fill:#ff2e88;fill-opacity:1;paint-order:markers stroke fill;stroke:none;stroke-dasharray:none;stroke-linejoin:round;stroke-miterlimit:3.6500001;stroke-opacity:1;stroke-width:25.000047909144303"/>
    <path d="m12.52 54.94 29.63 11.02 1.36 31.46 19.67-24.66 30.47 8.43-17.47-26.25L93.65 28.7l-30.47 8.44-19.67-24.66-1.36 31.46Z" style="fill:#ff2e88;fill-opacity:1;paint-order:markers stroke fill;stroke:none;stroke-dasharray:none;stroke-linejoin:round;stroke-miterlimit:3.6500001;stroke-opacity:1;stroke-width:25.000055778766676"/>
    <rect width="32.95" height="148.43" x="-37.84" y="135.44" rx="10" ry="10" style="opacity:1;fill:#ff2e88;fill-opacity:1;stroke:none;stroke-width:25.0014045;stroke-linecap:butt;stroke-linejoin:round;stroke-miterlimit:3.6500001;stroke-dasharray:none;stroke-opacity:1;paint-order:markers stroke fill" transform="matrix(.66074 -.75062 .76044 .64941 0 0)"/>
</svg>
