<svg xmlns="http://www.w3.org/2000/svg" width="426.18" height="426.18" viewBox="0 0 426.18 426.18">
    <g stroke-linecap="round" stroke-width="33.8" style="fill:#ff2e88;fill-opacity:1">
        <path d="m82.03 67.05 16.44 45.19c-.04.04-.06.09-.1.12l.13.38a149.78 149.78 0 0 0-18.5 24.9l-49.5-1.34c-.99 2.23-1.99 4.45-2.88 6.69a190.54 190.54 0 0 0-8.4 26.84l40.5 27.1c-.05.44-.02.9-.07 1.34l.28.19c-.46 4.72-.62 9.45-.62 14.15h88.94a61.68 61.68 0 0 1 2.43-16.72 62 62 0 0 1 17.82-28.68 63.18 63.18 0 0 1 20.75-12.75 65.29 65.29 0 0 1 12.3-3.35c.98-.16 1.97-.22 2.95-.34l1-.13c.77-.08 1.54-.22 2.3-.28.76-.05 1.5 0 2.26-.03.85-.03 1.7-.06 2.56-.06.47 0 .94-.04 1.4-.03.35 0 .7.05 1.04.06 1.72.06 3.44.21 5.16.4a65.02 65.02 0 0 1 21.75 6.35 62.5 62.5 0 0 1 34.96 55.56h89.03c0-4.72-.21-9.47-.68-14.22l41-27.43c-.01-.06-.05-.1-.06-.16a188.55 188.55 0 0 0-8.63-27.81c-.88-2.22-1.84-4.43-2.81-6.63l-49.13 1.35c-.33-.56-.72-1.08-1.06-1.63h-.31A150.56 150.56 0 0 0 328 114.11l16.68-45.8c-1.45-1.27-2.89-2.54-4.37-3.76-2.47-2.02-4.98-4-7.53-5.9a199.33 199.33 0 0 0-18.19-12l-39 29.34c-.57-.25-1.15-.41-1.72-.66l-.1.07a156.4 156.4 0 0 0-13.15-4.88 157.7 157.7 0 0 0-13.53-3.72l-.06-.15c-.03 0-.04-.03-.06-.03l-14.04-46.57c-1.97-.2-3.92-.45-5.9-.6-3.19-.22-6.4-.34-9.6-.43-2.14-.05-4.28-.04-6.43-.03-1.08.01-2.15-.03-3.22 0-3.2.08-6.38.24-9.56.47-1.02.07-2.03.22-3.04.31l-14 46.38a157.16 157.16 0 0 0-29.59 9.22l-39.38-29.6c-1.31.76-2.63 1.47-3.93 2.25A199.63 199.63 0 0 0 84.9 64.55c-.98.8-1.9 1.67-2.87 2.5Zm181.78 39.28c1.36.1 2.74.45 4.03 1.1a10.18 10.18 0 0 1 4.6 13.8 10.63 10.63 0 0 1-14.13 4.48 10.14 10.14 0 0 1-4.6-13.78 10.56 10.56 0 0 1 10.1-5.6Zm-148.88 47.28c1.36.1 2.74.45 4.03 1.1a10.14 10.14 0 0 1 4.6 13.78 10.63 10.63 0 0 1-14.13 4.47 10.14 10.14 0 0 1-4.6-13.78 10.53 10.53 0 0 1 10.1-5.57Z" style="fill:#ff2e88;fill-opacity:1;stroke-dasharray:none;stroke-miterlimit:3.825;stroke-width:33.805"/>
        <path d="m343.46 356.9-16.43-45.18c.03-.04.06-.09.1-.12l-.13-.38a149.72 149.72 0 0 0 18.5-24.9l49.5 1.34c.98-2.23 1.98-4.45 2.87-6.69a190.87 190.87 0 0 0 8.4-26.84l-40.5-27.1c.06-.44.03-.9.07-1.34l-.28-.19c.46-4.72.62-9.45.62-14.15h-88.93a61.81 61.81 0 0 1-2.44 16.71A62.12 62.12 0 0 1 263 250.47a62.83 62.83 0 0 1-6 6.28 63.17 63.17 0 0 1-20.75 12.75 65.29 65.29 0 0 1-12.32 3.35c-.97.16-1.96.22-2.93.34l-1 .12c-.77.08-1.55.23-2.32.29-.75.05-1.5 0-2.25.03-.85.03-1.7.06-2.56.06-.47 0-.94.04-1.4.03-.35 0-.7-.05-1.04-.06a65.35 65.35 0 0 1-5.15-.4 65 65 0 0 1-21.75-6.35 62.5 62.5 0 0 1-34.97-55.56H59.53c0 4.72.22 9.47.68 14.21l-41 27.44c.02.06.06.1.07.16a188.66 188.66 0 0 0 8.62 27.81c.88 2.22 1.84 4.43 2.81 6.63l49.13-1.35c.33.56.73 1.08 1.06 1.63h.31a150.22 150.22 0 0 0 16.29 21.97l-16.7 45.8c1.46 1.27 2.9 2.54 4.38 3.76 2.47 2.02 4.98 4 7.53 5.9a200 200 0 0 0 7.82 5.5 197.47 197.47 0 0 0 10.37 6.5l39-29.34c.57.25 1.15.41 1.72.66l.1-.07c4.3 1.83 8.7 3.44 13.15 4.88 4.45 1.44 8.96 2.68 13.53 3.72l.06.15c.03 0 .04.03.07.04l14.03 46.56c1.97.2 3.92.45 5.9.6 3.19.23 6.4.35 9.6.43 2.14.06 4.29.04 6.44.03 1.07-.01 2.14.03 3.21 0a203 203 0 0 0 9.57-.47c1-.07 2.02-.22 3.03-.31l14-46.38a157.14 157.14 0 0 0 29.6-9.21l39.37 29.59c1.31-.75 2.64-1.47 3.93-2.25 2.72-1.64 5.4-3.36 8.04-5.13a196.8 196.8 0 0 0 7.8-5.5 196.2 196.2 0 0 0 7.54-5.9c.98-.8 1.91-1.67 2.87-2.5ZM161.7 317.64a10.7 10.7 0 0 1-4.04-1.1 10.17 10.17 0 0 1-4.59-13.8 10.63 10.63 0 0 1 14.13-4.48 10.14 10.14 0 0 1 4.59 13.78 10.56 10.56 0 0 1-10.1 5.6Zm148.88-47.28c-1.37-.1-2.75-.46-4.04-1.1a10.14 10.14 0 0 1-4.59-13.78 10.63 10.63 0 0 1 14.13-4.47 10.14 10.14 0 0 1 4.59 13.78 10.53 10.53 0 0 1-10.1 5.57Z" style="fill:#ff2e88;fill-opacity:1"/>
        <path d="m371.48 197.8 42.67-28.56c0-.05-.05-.1-.06-.16a197.25 197.25 0 0 0-8.98-28.95c-.91-2.3-1.91-4.6-2.93-6.9l-51.12 1.4c-.35-.57-.76-1.11-1.1-1.69h-.33a156.37 156.37 0 0 0-16.95-22.86l17.37-47.68c-1.51-1.32-3.01-2.64-4.56-3.9a205.61 205.61 0 0 0-7.83-6.15 207.12 207.12 0 0 0-16.5-11.06c-.8-.49-1.61-.97-2.43-1.43l-40.6 30.54c-.58-.26-1.19-.43-1.78-.68l-.1.06c-4.48-1.9-9.06-3.58-13.7-5.07-4.63-1.5-9.31-2.8-14.07-3.87l-.07-.17-.06-.03-14.6-48.46c-2.06-.21-4.1-.47-6.15-.62a211.92 211.92 0 0 0-13.34-.5l-3.35.01c-1.12.02-2.23-.02-3.35 0-3.33.1-6.64.25-9.95.5-1.06.07-2.1.22-3.16.32l-14.57 48.26a163.56 163.56 0 0 0-30.8 9.6l-40.98-30.8c-1.37.78-2.74 1.52-4.1 2.34a207.25 207.25 0 0 0-24.32 17.2c-1.02.84-2 1.74-3 2.6l17.11 47.04-.1.13.13.39a155.86 155.86 0 0 0-19.25 25.92l-51.52-1.4c-1.02 2.32-2.06 4.63-2.99 6.96a198.45 198.45 0 0 0-8.75 27.94l42.15 28.2 1.24 32.11-42.67 28.56c0 .05.05.1.06.16a195.91 195.91 0 0 0 8.98 28.95c.91 2.3 1.91 4.6 2.93 6.9l51.12-1.4c.35.57.76 1.11 1.1 1.69h.33A155.7 155.7 0 0 0 93.5 316.1l-17.36 47.67c1.51 1.32 3.01 2.64 4.55 3.9 2.57 2.11 5.18 4.17 7.84 6.15a208.69 208.69 0 0 0 18.93 12.49l40.6-30.54c.58.26 1.19.43 1.78.68l.1-.06c4.48 1.9 9.06 3.58 13.7 5.07 4.63 1.5 9.31 2.8 14.07 3.87l.07.17.06.03 14.6 48.46c2.06.21 4.1.47 6.15.62a211.39 211.39 0 0 0 13.34.5h0l3.35-.01c1.12-.02 2.23.02 3.35 0 3.33-.1 6.64-.25 9.95-.5 1.06-.07 2.1-.23 3.16-.32l14.57-48.26a163.54 163.54 0 0 0 30.8-9.6l40.98 30.8c1.37-.78 2.74-1.52 4.1-2.34a222.18 222.18 0 0 0 16.49-11.06c2.65-1.98 5.26-4.04 7.83-6.14 1.02-.84 2-1.75 3-2.6l-17.11-47.04.1-.13-.13-.39a156.47 156.47 0 0 0 19.25-25.92l51.52 1.4c1.02-2.32 2.06-4.63 2.99-6.96a198.12 198.12 0 0 0 8.75-27.94l-42.15-28.2Z" style="fill:none;fill-opacity:1;stroke:#560026;stroke-dasharray:none;stroke-miterlimit:3.825;stroke-opacity:1;stroke-width:20"/>
        <circle cx="212.85" cy="212.15" r="59.38" style="fill:none;stroke:#5d0028;stroke-width:20;stroke-linecap:square;stroke-linejoin:round;stroke-miterlimit:3.825;stroke-dasharray:none;stroke-opacity:1;paint-order:markers stroke fill"/>
    </g>
</svg>
