<?xml version="1.0" encoding="UTF-8" standalone="no"?>
<svg
   xml:space="preserve"
   width="256"
   height="256"
   viewBox="0 0 256 256"
   version="1.1"
   id="svg3"
   sodipodi:docname="tray_done.svg"
   inkscape:version="1.3 (0e150ed6c4, 2023-07-21)"
   xmlns:inkscape="http://www.inkscape.org/namespaces/inkscape"
   xmlns:sodipodi="http://sodipodi.sourceforge.net/DTD/sodipodi-0.dtd"
   xmlns="http://www.w3.org/2000/svg"
   xmlns:svg="http://www.w3.org/2000/svg"><defs
   id="defs3" /><sodipodi:namedview
   id="namedview3"
   pagecolor="#ffffff"
   bordercolor="#000000"
   borderopacity="0.25"
   inkscape:showpageshadow="2"
   inkscape:pageopacity="0.0"
   inkscape:pagecheckerboard="0"
   inkscape:deskcolor="#d1d1d1"
   inkscape:zoom="1.839013"
   inkscape:cx="141.92396"
   inkscape:cy="132.40798"
   inkscape:window-width="1503"
   inkscape:window-height="933"
   inkscape:window-x="0"
   inkscape:window-y="0"
   inkscape:window-maximized="1"
   inkscape:current-layer="g3" />&#10;    &#10;    &#10;    &#10;    <g
   id="g3"
   transform="matrix(1.1901508,0,0,1.1901508,-1.2155752,-1.1559143)"><path
     d="m 10.54,143.2 19.82,7.34 0.9,21 13.17,-16.45 20.38,5.62 -11.68,-17.52 11.68,-17.52 -20.38,5.63 -13.16,-16.45 -0.91,21 z"
     style="fill:#ff2e88;fill-opacity:1;stroke:#000000;stroke-width:15;stroke-linecap:square;stroke-linejoin:round;stroke-miterlimit:3.65;stroke-dasharray:none;stroke-opacity:1;paint-order:markers stroke fill"
     id="path1" /><path
     d="m 107.66,56.01 24.47,9.09 1.13,25.96 L 149.5,70.7 174.67,77.66 160.24,56 174.67,34.34 149.5,41.3 133.26,20.96 132.13,46.92 Z"
     style="fill:#ff2e88;fill-opacity:1;stroke:#000000;stroke-width:15.0001;stroke-linejoin:round;stroke-miterlimit:3.65;stroke-dasharray:none;stroke-opacity:1;paint-order:markers stroke fill"
     id="path2" /><path
     d="M 8.52,50.94 38.15,61.96 39.51,93.42 59.18,68.76 89.65,77.19 72.18,50.94 89.65,24.7 59.18,33.14 39.51,8.47 38.15,39.93 Z"
     style="fill:#ff2e88;fill-opacity:1;stroke:#000000;stroke-width:15.0001;stroke-linejoin:round;stroke-miterlimit:3.65;stroke-dasharray:none;stroke-opacity:1;paint-order:markers stroke fill"
     id="path3" /><rect
     width="32.950127"
     height="148.43016"
     x="-37.762772"
     y="135.52959"
     rx="10.000039"
     ry="10.000011"
     style="opacity:1;fill:#ff2e88;fill-opacity:1;stroke:#000000;stroke-width:15.0008;stroke-linecap:butt;stroke-linejoin:round;stroke-miterlimit:3.65;stroke-dasharray:none;stroke-opacity:1;paint-order:markers stroke fill"
     transform="matrix(0.66073745,-0.7506171,0.76043911,0.64940924,0,0)"
     id="rect3" /></g>&#10;</svg>
