<svg xmlns="http://www.w3.org/2000/svg" xml:space="preserve" width="221" height="221" viewBox="0 0 221 221">
    <path d="m10.54 143.2 19.82 7.34.9 21 13.17-16.45 20.38 5.62-11.68-17.52 11.68-17.52-20.38 5.63-13.16-16.45-.91 21Z" style="fill:#a28800;fill-opacity:1;paint-order:markers stroke fill;stroke:#000;stroke-dasharray:none;stroke-linecap:square;stroke-linejoin:round;stroke-miterlimit:3.65;stroke-opacity:1;stroke-width:15.0000345462738"/>
    <path d="m107.66 56.01 24.47 9.09 1.13 25.96L149.5 70.7l25.17 6.96L160.24 56l14.43-21.66-25.17 6.96-16.24-20.34-1.13 25.96Z" style="fill:#a28800;fill-opacity:1;paint-order:markers stroke fill;stroke:#000;stroke-dasharray:none;stroke-linejoin:round;stroke-miterlimit:3.65;stroke-opacity:1;stroke-width:15.0000823381657"/>
    <path d="m8.52 50.94 29.63 11.02 1.36 31.46 19.67-24.66 30.47 8.43-17.47-26.25L89.65 24.7l-30.47 8.44L39.51 8.47l-1.36 31.46Z" style="fill:#a28800;fill-opacity:1;paint-order:markers stroke fill;stroke:#000;stroke-dasharray:none;stroke-linejoin:round;stroke-miterlimit:3.65;stroke-opacity:1;stroke-width:15.0000745146712"/>
    <rect width="32.95" height="148.43" x="-37.84" y="135.44" rx="10" ry="10" style="opacity:1;fill:#a28800;fill-opacity:1;stroke:#000;stroke-width:15.0008427;stroke-linecap:butt;stroke-linejoin:round;stroke-miterlimit:3.65;stroke-dasharray:none;stroke-opacity:1;paint-order:markers stroke fill" transform="matrix(.66074 -.75062 .76044 .64941 0 0)"/>
</svg>
