<svg width="128" height="128" version="1.1" viewBox="0 0 128 128" xml:space="preserve" xmlns="http://www.w3.org/2000/svg" xmlns:xlink="http://www.w3.org/1999/xlink">




<g transform="matrix(3.7795 0 0 3.7795 -154 -489)"><g transform="matrix(.17748 0 0 .17739 28.577 141.25)" fill="#fff" stroke="#000" stroke-width="4.4734"><g transform="matrix(.99261 0 0 .99261 30.846 -81.358)" stroke-width="4.5067">
        <rect transform="rotate(-45)" x="4.6237" y="137.17" width="23.791" height="158.61" rx="6.0089" ry="6.0089" fill="#fff" stroke="#000" stroke-linejoin="round" stroke-width="4.5067"/>

    </g><g transform="matrix(8.98 0 0 8.9869 -279.29 -1363.9)" fill-rule="evenodd"><path transform="matrix(.23836 0 0 .23836 42.686 111.91)" d="m37.012 168.44c-0.91696 0-2.877-6.9055-3.5254-7.5539s-7.5539-2.6084-7.5539-3.5254c0-0.91696 6.9055-2.877 7.5539-3.5254s2.6084-7.5539 3.5254-7.5539 2.877 6.9055 3.5254 7.5539 7.5539 2.6084 7.5539 3.5254c0 0.91697-6.9055 2.877-7.5539 3.5254s-2.6084 7.5539-3.5254 7.5539z" stroke-width="2.0891"/><path transform="matrix(.22245 0 0 .22245 33.217 119.73)" d="m37.012 168.44c-0.91696 0-2.877-6.9055-3.5254-7.5539s-7.5539-2.6084-7.5539-3.5254c0-0.91696 6.9055-2.877 7.5539-3.5254s2.6084-7.5539 3.5254-7.5539 2.877 6.9055 3.5254 7.5539 7.5539 2.6084 7.5539 3.5254c0 0.91697-6.9055 2.877-7.5539 3.5254s-2.6084 7.5539-3.5254 7.5539z" stroke-width="2.2386"/><path transform="matrix(.30265 0 0 .30265 32.642 100.3)" d="m37.012 168.44c-0.91696 0-2.877-6.9055-3.5254-7.5539s-7.5539-2.6084-7.5539-3.5254c0-0.91696 6.9055-2.877 7.5539-3.5254s2.6084-7.5539 3.5254-7.5539 2.877 6.9055 3.5254 7.5539 7.5539 2.6084 7.5539 3.5254c0 0.91697-6.9055 2.877-7.5539 3.5254s-2.6084 7.5539-3.5254 7.5539z" stroke-width="1.6454"/></g></g></g></svg>
