<svg width="128" height="128" version="1.1" viewBox="0 0 33.867 33.867" xml:space="preserve" xmlns="http://www.w3.org/2000/svg"><defs><linearGradient id="a" x1="144.49" x2="144.49" y1="266.85" y2="53.568" gradientTransform="matrix(1.0096 0 0 1.0096 -.10691 -.10393)" gradientUnits="userSpaceOnUse"><stop stop-color="#282829" offset="0"/><stop stop-color="#505053" offset="1"/></linearGradient></defs><g transform="translate(-32.279 -138.64)"><g transform="matrix(.13445 0 0 .13445 32.901 139.31)">
        <rect x="11.119" y="10.808" width="220.41" height="220.41" rx="29.519" ry="29.519" enable-background="new" fill="url(#a)" style="paint-order:normal"/>
    <g transform="matrix(1.0095 0 0 .99224 -.92822 -.83095)" fill="#ff2e88"><rect x="43.125" y="47.431" width="140.36" height="115.03" fill-opacity=".11492" stroke-width="4.2569"/><g stroke="#ff2e88" stroke-width="1.6714"><path d="m54.463 52.469h-8.3924a2.1106 2.1088 0 0 1-2.1106-2.0989c0-1.1539 0.94577-2.0989 2.1106-2.0989h8.4024a2.1006 2.0989 0 0 1 0 4.1978zm25.217 0h-8.3924a2.1106 2.1088 0 0 1-2.1006-2.0989c0-1.1539 0.94576-2.0989 2.1006-2.0989h8.4024a2.1006 2.0989 0 0 1 0.01 4.1978zm-25.217 109.16h-8.3924a2.1106 2.1088 0 0 1-2.1106-2.0889c0-1.1638 0.94577-2.1088 2.1106-2.1088h8.4024a2.1006 2.0989 0 0 1 0 4.1978zm25.217 0h-8.3924a2.1106 2.1088 0 0 1-2.1006-2.0889c0-1.1638 0.94576-2.1088 2.1006-2.1088h8.4024a2.1006 2.0989 0 0 1 0.01 4.1978zm25.217-109.16h-8.4024a2.1106 2.1088 0 0 1-2.1006-2.0989c0-1.1539 0.94577-2.0989 2.0906-2.0989h8.4123a2.1006 2.0989 0 0 1 0 4.1978zm25.207 0h-8.4024a2.1106 2.1088 0 0 1-2.0906-2.0989 2.0906 2.0889 0 0 1 2.0906-2.0989h8.4024a2.1006 2.0989 0 0 1 0.01 4.1978zm25.217 0h-8.4024a2.1106 2.1088 0 0 1-2.1006-2.0989c0-1.1539 0.94576-2.0989 2.0906-2.0989h8.4123a2.1006 2.0989 0 0 1 0 4.1978zm25.217 0h-8.4124a2.1106 2.1088 0 0 1-2.0906-2.0989 2.0906 2.0889 0 0 1 2.0906-2.0989h8.4124a2.1006 2.0989 0 0 1 0 4.1978zm-134.47 33.582a2.1106 2.1088 0 0 1-2.1106-2.0889v-8.4055a2.1106 2.1088 0 0 1 4.2012 0v8.3956a2.0906 2.0889 0 0 1-2.0906 2.0989z"/><path d="m46.071 60.864a2.1106 2.1088 0 0 1-2.1106-2.0989v-8.3956a2.1106 2.1088 0 0 1 4.2012 0v8.3956a2.0906 2.0889 0 0 1-2.0906 2.0889zm0 75.57a2.1106 2.1088 0 0 1-2.1106-2.089v-8.4055a2.1106 2.1088 0 0 1 4.2012 0v8.4055a2.0906 2.0889 0 0 1-2.0906 2.089zm0 25.197a2.1106 2.1088 0 0 1-2.1106-2.0889v-8.4055a2.1106 2.1088 0 0 1 4.2012 0v8.3956a2.0906 2.0889 0 0 1-2.0906 2.0989zm0-50.383a2.1106 2.1088 0 0 1-2.1106-2.0989v-8.3956a2.1106 2.1088 0 0 1 4.2012 0v8.3956a2.0906 2.0889 0 0 1-2.0906 2.0989zm134.47-25.197a2.1106 2.1088 0 0 1-2.1006-2.0889v-8.4055a2.1006 2.0989 0 0 1 4.2012 0v8.3956c0 1.1638-0.94578 2.0989-2.1006 2.0989zm0-25.187a2.1106 2.1088 0 0 1-2.1006-2.0989v-8.3956a2.1006 2.0989 0 0 1 4.2012-0.01v8.4055a2.0906 2.0889 0 0 1-2.1006 2.0889zm0 50.383a2.1106 2.1088 0 0 1-2.1006-2.0989v-8.3956a2.1006 2.0989 0 0 1 4.2012-0.01v8.4055c0 1.1539-0.94578 2.0989-2.1006 2.0989z"/><rect x="43.96" y="48.271" width="4.2012" height="4.1978"/><rect x="178.44" y="48.271" width="4.2012" height="4.1978"/><rect x="43.96" y="157.43" width="4.2012" height="4.1978"/><path d="m178.45 159.52v-8.3956a2.1006 2.0989 0 0 1 4.2012 0v8.3956c0 1.1539-0.94577 2.0989-2.1006 2.0989a2.1106 2.1088 0 0 1-2.1006-2.0889z"/><path d="m169.93 159.52c0-1.1539 0.94577-2.089 2.1006-2.089h8.4123a2.0956 2.0939 0 0 1 0 4.1878h-8.4123a2.1106 2.1088 0 0 1-2.0906-2.0889z"/><rect transform="rotate(90)" x="157.43" y="-182.64" width="4.1978" height="4.2012"/><path d="m180.47 136.39a2.1106 2.1088 0 0 1-2.1006-2.0989v-8.4055a2.1006 2.0989 0 0 1 4.2012 0v8.4055a2.0906 2.0889 0 0 1-2.1006 2.0889zm-75.612 25.197h-8.4024a2.1106 2.1088 0 0 1-2.1006-2.0989c0-1.1539 0.94577-2.0989 2.0906-2.0989h8.4123c1.1548 0 2.1006 0.94498 2.1006 2.0989 0 1.1539-0.94577 2.0989-2.1006 2.0989zm25.217 0h-8.4123a2.1106 2.1088 0 0 1-2.0906-2.0989 2.0906 2.0889 0 0 1 2.0906-2.0989h8.4123a2.1006 2.0989 0 0 1 0 4.1978zm25.207 0h-8.4024a2.1106 2.1088 0 0 1-2.1006-2.0989c0-1.1539 0.94575-2.0989 2.0906-2.0989h8.4123a2.1006 2.0989 0 0 1 0.01 4.1978z"/></g></g><g transform="matrix(.99261 0 0 .99261 2.3511 2.4994)" stroke-width="1.0074">
        <rect transform="matrix(4.6409 -4.6409 4.5301 4.5301 -16.32 158.04)" x="17.67" y="4.07" width="2.33" height="24.77" rx=".60416" ry=".61894" stroke="#fff" stroke-linejoin="round" stroke-width=".49391"/><path d="m86.97 91.62 5.15-5.15a4 4 0 0 1 5.67 0l21.35 21.35-10.81 10.82-21.36-21.36a4 4 0 0 1 0-5.66z" color="#000000" color-rendering="auto" dominant-baseline="auto" fill="#fff" image-rendering="auto" shape-rendering="auto" solid-color="#000000" stop-color="#000000" style="font-feature-settings:normal;font-variant-alternates:normal;font-variant-caps:normal;font-variant-east-asian:normal;font-variant-ligatures:normal;font-variant-numeric:normal;font-variant-position:normal;font-variation-settings:normal;inline-size:0;isolation:auto;mix-blend-mode:normal;shape-margin:0;shape-padding:0;text-decoration-color:#000000;text-decoration-line:none;text-decoration-style:solid;text-indent:0;text-orientation:mixed;text-transform:none;white-space:normal"/>
        <path d="m86.29 90.93a5 5 0 0 0-0.03 7.06l33.04 33.3 12.22-12.23-33.03-33.3a5 5 0 0 0-7.05 0.02zm1.37 1.37 5.15-5.15a3 3 0 0 1 4.28 0.02c-6.82 5.18-4.2 2.91-9.41 9.41a3 3 0 0 1-0.02-4.28z" color="#000000" color-rendering="auto" dominant-baseline="auto" fill="#fff" image-rendering="auto" shape-rendering="auto" solid-color="#000000" stop-color="#000000" style="font-feature-settings:normal;font-variant-alternates:normal;font-variant-caps:normal;font-variant-east-asian:normal;font-variant-ligatures:normal;font-variant-numeric:normal;font-variant-position:normal;font-variation-settings:normal;inline-size:0;isolation:auto;mix-blend-mode:normal;shape-margin:0;shape-padding:0;text-decoration-color:#000000;text-decoration-line:none;text-decoration-style:solid;text-indent:0;text-orientation:mixed;text-transform:none;white-space:normal"/>
    </g><g transform="matrix(8.0101 0 0 8.0101 -273.16 -1134.7)" fill="#fff" fill-rule="evenodd" stroke="#fff"><path transform="matrix(.23836 0 0 .23836 42.147 113.61)" d="m37.012 168.44c-0.91696 0-2.877-6.9055-3.5254-7.5539s-7.5539-2.6084-7.5539-3.5254c0-0.91696 6.9055-2.877 7.5539-3.5254s2.6084-7.5539 3.5254-7.5539 2.877 6.9055 3.5254 7.5539 7.5539 2.6084 7.5539 3.5254c0 0.91697-6.9055 2.877-7.5539 3.5254s-2.6084 7.5539-3.5254 7.5539z" stroke-width=".51779"/><path transform="matrix(.19455 0 0 .19455 33.941 124.43)" d="m37.012 168.44c-0.91696 0-2.877-6.9055-3.5254-7.5539s-7.5539-2.6084-7.5539-3.5254c0-0.91696 6.9055-2.877 7.5539-3.5254s2.6084-7.5539 3.5254-7.5539 2.877 6.9055 3.5254 7.5539 7.5539 2.6084 7.5539 3.5254c0 0.91697-6.9055 2.877-7.5539 3.5254s-2.6084 7.5539-3.5254 7.5539z" stroke-width=".57242"/><path transform="matrix(.30265 0 0 .30265 32.642 100.3)" d="m37.012 168.44c-0.91696 0-2.877-6.9055-3.5254-7.5539s-7.5539-2.6084-7.5539-3.5254c0-0.91696 6.9055-2.877 7.5539-3.5254s2.6084-7.5539 3.5254-7.5539 2.877 6.9055 3.5254 7.5539 7.5539 2.6084 7.5539 3.5254c0 0.91697-6.9055 2.877-7.5539 3.5254s-2.6084 7.5539-3.5254 7.5539z" stroke-width=".57158"/></g></g></g></svg>
