<?xml version="1.0" encoding="UTF-8" standalone="no"?>
<svg
   xmlns:dc="http://purl.org/dc/elements/1.1/"
   xmlns:cc="http://creativecommons.org/ns#"
   xmlns:rdf="http://www.w3.org/1999/02/22-rdf-syntax-ns#"
   xmlns:svg="http://www.w3.org/2000/svg"
   xmlns="http://www.w3.org/2000/svg"
   xmlns:xlink="http://www.w3.org/1999/xlink"
   xmlns:sodipodi="http://sodipodi.sourceforge.net/DTD/sodipodi-0.dtd"
   xmlns:inkscape="http://www.inkscape.org/namespaces/inkscape"
   version="1.1"
   id="Layer_1"
   x="0px"
   y="0px"
   viewBox="0 0 240.00001 240"
   xml:space="preserve"
   sodipodi:docname="normcap.svg"
   inkscape:version="1.0.2 (e86c870879, 2021-01-15)"
   inkscape:export-filename="/home/holger/Code/normcap/assets/icons/normcap_128.png"
   inkscape:export-xdpi="51.200001"
   inkscape:export-ydpi="51.200001"
   width="240"
   height="240"><metadata
   id="metadata178"><rdf:RDF><cc:Work
       rdf:about=""><dc:format>image/svg+xml</dc:format><dc:type
         rdf:resource="http://purl.org/dc/dcmitype/StillImage" /><dc:title></dc:title></cc:Work></rdf:RDF></metadata><defs
   id="defs176"><linearGradient
     id="linearGradient1534"><stop
       style="stop-color:#262627;stop-opacity:1"
       offset="0"
       id="stop1530" /><stop
       style="stop-color:#3b3b3d;stop-opacity:1"
       offset="1"
       id="stop1532" /></linearGradient><linearGradient
     id="outerBackgroundGradient-76"><stop
       style="stop-color:#282829;stop-opacity:1"
       offset="0"
       id="stop3864-8-6-9" /><stop
       style="stop-color:#505053;stop-opacity:1"
       offset="1"
       id="stop3866-9-1-49" /></linearGradient><linearGradient
     inkscape:collect="always"
     xlink:href="#outerBackgroundGradient-76"
     id="linearGradient5994"
     gradientUnits="userSpaceOnUse"
     gradientTransform="rotate(-90,143.75,155.75)"
     x1="35"
     y1="156"
     x2="253"
     y2="156" /><linearGradient
     inkscape:collect="always"
     xlink:href="#linearGradient1534"
     id="linearGradient1528"
     gradientUnits="userSpaceOnUse"
     gradientTransform="rotate(-90,17.623004,276.25457)"
     x1="35"
     y1="156"
     x2="253"
     y2="156" /></defs><sodipodi:namedview
   pagecolor="#d6d6d6"
   bordercolor="#666666"
   borderopacity="1"
   objecttolerance="10"
   gridtolerance="10"
   guidetolerance="10"
   inkscape:pageopacity="0"
   inkscape:pageshadow="2"
   inkscape:window-width="1920"
   inkscape:window-height="1023"
   id="namedview174"
   showgrid="false"
   showguides="true"
   inkscape:guide-bbox="true"
   inkscape:zoom="2.6390158"
   inkscape:cx="71.34578"
   inkscape:cy="133.25573"
   inkscape:window-x="0"
   inkscape:window-y="0"
   inkscape:window-maximized="1"
   inkscape:current-layer="g1801"
   scale-x="256"
   inkscape:document-rotation="0"
   fit-margin-top="10"
   fit-margin-left="10"
   fit-margin-right="10"
   fit-margin-bottom="10"
   units="px" />























<g
   style="display:none"
   inkscape:label="Baseplate"
   id="layer7"
   inkscape:groupmode="layer"
   transform="translate(-24,-36)"><text
     y="19.745117"
     xml:space="preserve"
     x="15.006836"
     style="font-style:normal;font-variant:normal;font-weight:normal;font-stretch:normal;line-height:0%;font-family:'DejaVu Sans';-inkscape-font-specification:'DejaVu Sans';display:inline;fill:#000000;fill-opacity:1;stroke:none;enable-background:new"
     inkscape:label="context"
     id="context"><tspan
       style="font-style:normal;font-variant:normal;font-weight:normal;font-stretch:normal;font-size:18px;line-height:1.25;font-family:'DejaVu Sans';-inkscape-font-specification:'DejaVu Sans'"
       y="19.745117"
       x="15.006836"
       sodipodi:role="line"
       id="tspan3933">apps</tspan></text><text
     y="19.745117"
     xml:space="preserve"
     x="122.48828"
     style="font-style:normal;font-variant:normal;font-weight:bold;font-stretch:normal;line-height:0%;font-family:'DejaVu Sans';-inkscape-font-specification:'DejaVu Sans Bold';text-align:start;writing-mode:lr-tb;text-anchor:start;display:inline;fill:#000000;fill-opacity:1;stroke:none;enable-background:new"
     inkscape:label="icon-name"
     id="icon-name"><tspan
       style="font-style:normal;font-variant:normal;font-weight:bold;font-stretch:normal;font-size:18px;line-height:1.25;font-family:'DejaVu Sans';-inkscape-font-specification:'DejaVu Sans Bold'"
       y="19.745117"
       x="122.48828"
       sodipodi:role="line"
       id="tspan3937">bootloader</tspan></text><rect
     style="display:inline;overflow:visible;visibility:visible;fill:#eeeeec;fill-opacity:1;fill-rule:nonzero;stroke:none;stroke-width:2;marker:none;enable-background:accumulate"
     id="rect16x16"
     width="16"
     height="16"
     x="416"
     y="140"
     inkscape:label="16x16" /><rect
     style="display:inline;overflow:visible;visibility:visible;fill:#d4d4d4;fill-opacity:1;fill-rule:nonzero;stroke:none;stroke-width:2;marker:none;enable-background:accumulate"
     id="rect24x24"
     width="24"
     height="24"
     x="416"
     y="100"
     inkscape:label="24x24" /><rect
     style="display:inline;overflow:visible;visibility:visible;fill:#eeeeec;fill-opacity:1;fill-rule:nonzero;stroke:none;stroke-width:2;marker:none;enable-background:accumulate"
     id="rect32x32"
     width="32"
     height="32"
     x="416"
     y="52"
     inkscape:label="32x32" /><rect
     inkscape:label="22x22"
     y="101"
     x="417"
     height="22"
     width="22"
     id="rect22x22"
     style="display:inline;overflow:visible;visibility:visible;fill:#eeeeec;fill-opacity:1;fill-rule:nonzero;stroke:none;stroke-width:2;marker:none;enable-background:accumulate" /><rect
     inkscape:label="48x48"
     y="220"
     x="288"
     height="48"
     width="48"
     id="rect48x48"
     style="display:inline;overflow:visible;visibility:visible;fill:#eeeeec;fill-opacity:1;fill-rule:nonzero;stroke:none;stroke-width:2;marker:none;enable-background:accumulate" /><rect
     style="display:inline;overflow:visible;visibility:visible;fill:#eeeeec;fill-opacity:1;fill-rule:nonzero;stroke:none;stroke-width:2;marker:none;enable-background:accumulate"
     id="rect256x256"
     width="256"
     height="256"
     x="16"
     y="28"
     inkscape:label="256x256" /><rect
     style="display:inline;overflow:visible;visibility:visible;fill:#eeeeec;fill-opacity:1;fill-rule:nonzero;stroke:none;stroke-width:2;marker:none;enable-background:accumulate"
     id="rect64x64"
     width="64"
     height="64"
     x="288"
     y="140"
     inkscape:label="64x64" /><rect
     style="display:inline;overflow:visible;visibility:visible;fill:#eeeeec;fill-opacity:1;fill-rule:nonzero;stroke:none;stroke-width:2;marker:none;enable-background:accumulate"
     id="rect96x96"
     width="96"
     height="96"
     x="288"
     y="28"
     inkscape:label="96x96" /></g><g
   inkscape:groupmode="layer"
   id="layer4"
   inkscape:label="Shadow"
   style="display:inline"
   sodipodi:insensitive="true"
   transform="translate(-24,-36)"><rect
     ry="50"
     y="47"
     x="34"
     height="220"
     width="220"
     id="rect4114"
     style="color:#bebebe;display:inline;overflow:visible;visibility:visible;opacity:0.1;fill:#000000;fill-opacity:1;fill-rule:nonzero;stroke:none;stroke-width:0;marker:none;enable-background:accumulate"
     rx="50" /></g><g
   inkscape:groupmode="layer"
   id="layer2"
   inkscape:label="Background"
   style="display:inline"
   transform="translate(-24,-36)"><path
     style="color:#bebebe;display:inline;overflow:visible;visibility:visible;fill:url(#linearGradient5994);fill-opacity:1;fill-rule:nonzero;stroke:none;stroke-width:2;marker:none;enable-background:accumulate"
     d="M 84,46 C 56.568735,46 34.5,68.068732 34.5,95.5 v 120 c 0,27.43127 22.068735,49.5 49.5,49.5 h 120 c 27.43127,0 49.5,-22.06873 49.5,-49.5 V 95.5 C 253.5,68.068732 231.43127,46 204,46 Z"
     id="path4200" /></g><g
   inkscape:groupmode="layer"
   id="layer6"
   inkscape:label="Symbols"
   style="display:inline"
   transform="translate(-24,-36)" /><g
   inkscape:groupmode="layer"
   id="layer5"
   inkscape:label="Highlights"
   style="display:inline"
   sodipodi:insensitive="true"
   transform="translate(-24,-36)"><path
     style="color:#bebebe;display:inline;overflow:visible;visibility:visible;opacity:0.13;fill:#ffffff;fill-opacity:1;fill-rule:nonzero;stroke:none;stroke-width:0;marker:none;enable-background:accumulate"
     d="M 84,47 C 56.836703,47 35,68.836703 35,96 v 1 C 35,69.836703 56.836703,48 84,48 h 120 c 27.1633,0 49,21.836703 49,49 V 96 C 253,68.836703 231.1633,47 204,47 Z"
     id="rect3894"
     inkscape:connector-curvature="0" /><path
     id="path4085"
     d="m 204,266 c 27.1633,0 49,-21.8367 49,-49 v -1 c 0,27.1633 -21.8367,49 -49,49 H 84 C 56.8367,265 35,243.1633 35,216 v 1 c 0,27.1633 21.8367,49 49,49 z"
     style="color:#bebebe;display:inline;overflow:visible;visibility:visible;opacity:0.41;fill:#000000;fill-opacity:1;fill-rule:nonzero;stroke:none;stroke-width:0;marker:none;enable-background:accumulate"
     inkscape:connector-curvature="0" /><path
     inkscape:connector-curvature="0"
     id="path4280"
     d="M 84,265 C 56.836703,265 35,243.1633 35,216 v -1 c 0,27.1633 21.836703,49 49,49 h 120 c 27.1633,0 49,-21.8367 49,-49 v 1 c 0,27.1633 -21.8367,49 -49,49 z"
     style="color:#bebebe;display:inline;overflow:visible;visibility:visible;opacity:0.1;fill:#ffffff;fill-opacity:1;fill-rule:nonzero;stroke:none;stroke-width:0;marker:none;enable-background:accumulate" /></g><g
   inkscape:groupmode="layer"
   id="layer3"
   inkscape:label="Border"
   style="display:inline"
   sodipodi:insensitive="true"
   transform="translate(-24,-36)"><path
     style="color:#bebebe;display:inline;overflow:visible;visibility:visible;opacity:0.41;fill:#000000;fill-opacity:1;fill-rule:nonzero;stroke:none;stroke-width:0;marker:none;enable-background:accumulate"
     d="M 84,46 C 56.3,46 34,68.3 34,96 v 120 c 0,27.7 22.3,50 50,50 h 120 c 27.7,0 50,-22.3 50,-50 V 96 C 254,68.3 231.7,46 204,46 Z m 0,1 h 120 c 27.1633,0 49,21.836703 49,49 v 120 c 0,27.1633 -21.8367,49 -49,49 H 84 C 56.836703,265 35,243.1633 35,216 V 96 C 35,68.836703 56.836703,47 84,47 Z"
     id="rect4040"
     inkscape:connector-curvature="0" /></g><rect
   x="43.654591"
   y="47.966251"
   style="fill:#ff2e88;fill-opacity:0.114921;stroke-width:4.22095"
   width="139.29158"
   height="113.96584"
   id="rect113" /><path
   style="fill:#ff2e88;fill-opacity:1;stroke-width:4.22095"
   d="m 54.206986,52.18721 h -8.44192 c -1.16076,0 -2.11047,-0.949716 -2.11047,-2.110479 v 0 c 0,-1.160763 0.94971,-2.110478 2.11047,-2.110478 h 8.44192 c 1.16077,0 2.11048,0.949715 2.11048,2.110478 v 0 c 0,1.160763 -0.94971,2.110479 -2.11048,2.110479 z"
   id="path135" /><path
   style="fill:#ff2e88;fill-opacity:1;stroke-width:4.22095"
   d="m 79.532724,52.18721 h -8.441908 c -1.16076,0 -2.11048,-0.949716 -2.11048,-2.110479 v 0 c 0,-1.160763 0.94972,-2.110478 2.11048,-2.110478 h 8.441908 c 1.16076,0 2.11048,0.949715 2.11048,2.110478 v 0 c 0,1.160763 -0.94972,2.110479 -2.11048,2.110479 z"
   id="path137" /><path
   style="fill:#ff2e88;fill-opacity:1;stroke-width:4.22095"
   d="m 54.206986,161.9321 h -8.44192 c -1.16076,0 -2.11047,-0.94972 -2.11047,-2.11048 v 0 c 0,-1.16076 0.94971,-2.11048 2.11047,-2.11048 h 8.44192 c 1.16077,0 2.11048,0.94972 2.11048,2.11048 v 0 c 0,1.16076 -0.94971,2.11048 -2.11048,2.11048 z"
   id="path139" /><path
   style="fill:#ff2e88;fill-opacity:1;stroke-width:4.22095"
   d="m 79.532724,161.9321 h -8.441908 c -1.16076,0 -2.11048,-0.94972 -2.11048,-2.11048 v 0 c 0,-1.16076 0.94972,-2.11048 2.11048,-2.11048 h 8.441908 c 1.16076,0 2.11048,0.94972 2.11048,2.11048 v 0 c 0,1.16076 -0.94972,2.11048 -2.11048,2.11048 z"
   id="path141" /><path
   style="fill:#ff2e88;fill-opacity:1;stroke-width:4.22095"
   d="m 104.85848,52.18721 h -8.441926 c -1.16077,0 -2.11048,-0.949716 -2.11048,-2.110479 v 0 c 0,-1.160763 0.94971,-2.110478 2.11048,-2.110478 h 8.441926 c 1.16076,0 2.11047,0.949715 2.11047,2.110478 v 0 c 0,1.160763 -0.94971,2.110479 -2.11047,2.110479 z"
   id="path143" /><path
   style="fill:#ff2e88;fill-opacity:1;stroke-width:4.22095"
   d="m 130.18421,52.18721 h -8.44191 c -1.16076,0 -2.11047,-0.949716 -2.11047,-2.110479 v 0 c 0,-1.160763 0.94971,-2.110478 2.11047,-2.110478 h 8.44191 c 1.16077,0 2.11049,0.949715 2.11049,2.110478 v 0 c 0,1.160763 -0.94972,2.110479 -2.11049,2.110479 z"
   id="path145" /><path
   style="fill:#ff2e88;fill-opacity:1;stroke-width:4.22095"
   d="m 155.50996,52.18721 h -8.44192 c -1.16076,0 -2.11047,-0.949716 -2.11047,-2.110479 v 0 c 0,-1.160763 0.94971,-2.110478 2.11047,-2.110478 h 8.44192 c 1.16076,0 2.11048,0.949715 2.11048,2.110478 v 0 c 0,1.160763 -0.94972,2.110479 -2.11048,2.110479 z"
   id="path147" /><path
   style="fill:#ff2e88;fill-opacity:1;stroke-width:4.22095"
   d="m 180.83571,52.18721 h -8.44192 c -1.16076,0 -2.11048,-0.949716 -2.11048,-2.110479 v 0 c 0,-1.160763 0.94972,-2.110478 2.11048,-2.110478 h 8.44192 c 1.16076,0 2.11048,0.949715 2.11048,2.110478 v 0 c 0,1.160763 -0.94972,2.110479 -2.11048,2.110479 z"
   id="path149" /><path
   style="fill:#ff2e88;fill-opacity:1;stroke-width:4.22095"
   d="m 45.765066,85.954864 v 0 c -1.16076,0 -2.11047,-0.94971 -2.11047,-2.11048 v -8.44191 c 0,-1.16076 0.94971,-2.11048 2.11047,-2.11048 v 0 c 1.16077,0 2.11048,0.94972 2.11048,2.11048 v 8.44191 c 0,1.16077 -0.94971,2.11048 -2.11048,2.11048 z"
   id="path151" /><path
   style="fill:#ff2e88;fill-opacity:1;stroke-width:4.22095"
   d="m 45.765066,60.629124 v 0 c -1.16076,0 -2.11047,-0.949716 -2.11047,-2.110479 v -8.441914 c 0,-1.160763 0.94971,-2.110478 2.11047,-2.110478 v 0 c 1.16077,0 2.11048,0.949715 2.11048,2.110478 v 8.441914 c 0,1.160763 -0.94971,2.110479 -2.11048,2.110479 z"
   id="path153" /><path
   style="fill:#ff2e88;fill-opacity:1;stroke-width:4.22095"
   d="m 45.765066,136.60635 v 0 c -1.16076,0 -2.11047,-0.94972 -2.11047,-2.11048 v -8.44191 c 0,-1.16077 0.94971,-2.11048 2.11047,-2.11048 v 0 c 1.16077,0 2.11048,0.94972 2.11048,2.11048 v 8.44191 c 0,1.16076 -0.94971,2.11048 -2.11048,2.11048 z"
   id="path155" /><path
   style="fill:#ff2e88;fill-opacity:1;stroke-width:4.22095"
   d="m 45.765066,161.9321 v 0 c -1.16076,0 -2.11047,-0.94972 -2.11047,-2.11048 v -8.44192 c 0,-1.16076 0.94971,-2.11048 2.11047,-2.11048 v 0 c 1.16077,0 2.11048,0.94972 2.11048,2.11048 v 8.44192 c 0,1.16076 -0.94971,2.11048 -2.11048,2.11048 z"
   id="path157" /><path
   style="fill:#ff2e88;fill-opacity:1;stroke-width:4.22095"
   d="m 45.765066,111.28061 v 0 c -1.16076,0 -2.11047,-0.94972 -2.11047,-2.11048 v -8.44191 c 0,-1.160766 0.94971,-2.110486 2.11047,-2.110486 v 0 c 1.16077,0 2.11048,0.94972 2.11048,2.110486 v 8.44191 c 0,1.16076 -0.94971,2.11048 -2.11048,2.11048 z"
   id="path159" /><path
   style="fill:#ff2e88;fill-opacity:1;stroke-width:4.22095"
   d="m 180.83571,85.954864 v 0 c -1.16077,0 -2.11049,-0.94971 -2.11049,-2.11048 v -8.44191 c 0,-1.16076 0.94972,-2.11048 2.11049,-2.11048 v 0 c 1.16076,0 2.11048,0.94972 2.11048,2.11048 v 8.44191 c 0,1.16077 -0.94972,2.11048 -2.11048,2.11048 z"
   id="path161" /><path
   style="fill:#ff2e88;fill-opacity:1;stroke-width:4.22095"
   d="m 180.83571,60.629124 v 0 c -1.16077,0 -2.11049,-0.949716 -2.11049,-2.110479 v -8.441914 c 0,-1.160763 0.94972,-2.110478 2.11049,-2.110478 v 0 c 1.16076,0 2.11048,0.949715 2.11048,2.110478 v 8.441914 c 0,1.160763 -0.94972,2.110479 -2.11048,2.110479 z"
   id="path163" /><path
   style="fill:#ff2e88;fill-opacity:1;stroke-width:4.22095"
   d="m 180.83571,111.28061 v 0 c -1.16077,0 -2.11049,-0.94972 -2.11049,-2.11048 v -8.44191 c 0,-1.160766 0.94972,-2.110486 2.11049,-2.110486 v 0 c 1.16076,0 2.11048,0.94972 2.11048,2.110486 v 8.44191 c 0,1.16076 -0.94972,2.11048 -2.11048,2.11048 z"
   id="path165" /><rect
   x="43.654591"
   y="47.966251"
   style="fill:#ff2e88;fill-opacity:1;stroke-width:4.22095"
   width="4.2209573"
   height="4.2209573"
   id="rect167" /><rect
   x="178.72522"
   y="47.966251"
   style="fill:#ff2e88;fill-opacity:1;stroke-width:4.22095"
   width="4.2209573"
   height="4.2209573"
   id="rect169" /><rect
   x="43.654591"
   y="157.71115"
   style="fill:#ff2e88;fill-opacity:1;stroke-width:4.22095"
   width="4.2209573"
   height="4.2209573"
   id="rect171" /><path
   style="fill:#ff2e88;fill-opacity:1;stroke-width:4.22095"
   d="m 178.73868,159.81203 v -8.44191 c 0,-1.16076 0.94972,-2.11048 2.11048,-2.11048 v 0 c 1.16077,0 2.11048,0.94972 2.11048,2.11048 v 8.44191 c 0,1.16076 -0.94971,2.11048 -2.11048,2.11048 v 0 c -1.16076,0 -2.11048,-0.94972 -2.11048,-2.11048 z"
   id="path180" /><path
   style="fill:#ff2e88;fill-opacity:1;stroke-width:4.22095"
   d="m 170.18398,159.81203 v 0 c 0,-1.16076 0.94971,-2.11048 2.11048,-2.11048 h 8.44191 c 1.16076,0 2.11048,0.94972 2.11048,2.11048 v 0 c 0,1.16076 -0.94972,2.11048 -2.11048,2.11048 h -8.44191 c -1.16077,0 -2.11048,-0.94972 -2.11048,-2.11048 z"
   id="path182" /><rect
   x="157.71115"
   y="-182.9462"
   style="fill:#ff2e88;fill-opacity:1;stroke-width:4.22095"
   width="4.2209573"
   height="4.2209573"
   id="rect184"
   transform="rotate(90)" /><path
   style="fill:#ff2e88;fill-opacity:1;stroke-width:4.22095"
   d="m 180.7703,136.55573 v 0 c -1.16077,0 -2.11048,-0.94972 -2.11048,-2.11048 v -8.44191 c 0,-1.16077 0.94971,-2.11048 2.11048,-2.11048 v 0 c 1.16076,0 2.11047,0.94971 2.11047,2.11048 v 8.44191 c 0,1.16076 -0.94971,2.11048 -2.11047,2.11048 z"
   id="path186" /><path
   style="fill:#ff2e88;fill-opacity:1;stroke-width:4.22095"
   d="m 104.81935,161.89026 h -8.441916 c -1.16077,0 -2.11048,-0.94972 -2.11048,-2.11048 v 0 c 0,-1.16077 0.94971,-2.11049 2.11048,-2.11049 h 8.441916 c 1.16077,0 2.11048,0.94972 2.11048,2.11049 v 0 c 0,1.16076 -0.94971,2.11048 -2.11048,2.11048 z"
   id="path192" /><path
   style="fill:#ff2e88;fill-opacity:1;stroke-width:4.22095"
   d="m 130.14509,161.89026 h -8.44191 c -1.16077,0 -2.11049,-0.94972 -2.11049,-2.11048 v 0 c 0,-1.16077 0.94972,-2.11049 2.11049,-2.11049 h 8.44191 c 1.16077,0 2.11048,0.94972 2.11048,2.11049 v 0 c 0,1.16076 -0.94971,2.11048 -2.11048,2.11048 z"
   id="path194" /><path
   style="fill:#ff2e88;fill-opacity:1;stroke-width:4.22095"
   d="m 155.47084,161.89026 h -8.44192 c -1.16076,0 -2.11048,-0.94972 -2.11048,-2.11048 v 0 c 0,-1.16077 0.94972,-2.11049 2.11048,-2.11049 h 8.44192 c 1.16076,0 2.11048,0.94972 2.11048,2.11049 v 0 c 0,1.16076 -0.94972,2.11048 -2.11048,2.11048 z"
   id="path196" /><g
   id="g1864"
   transform="matrix(4.6408778,-4.6408778,4.6408778,4.6408778,-105.51751,106.35002)"><g
     id="g1835"
     transform="translate(4.0410629,14.536507)"><g
       id="g1781">


</g><g
       id="g1801"
       transform="matrix(1,0,0,0.97612184,0,0.64243178)">


<rect
   style="fill:#3b3b3d;fill-opacity:1;stroke:#ffffff;stroke-width:0.303647;stroke-linejoin:round;stroke-miterlimit:4;stroke-dasharray:none;stroke-opacity:1"
   id="rect1841"
   width="2.3311145"
   height="24.76825"
   x="17.674177"
   y="4.0693827"
   ry="0.62576902"
   rx="0.62576902" /><g
   id="rect1843"
   style="opacity:1"><path
     style="color:#000000;font-style:normal;font-variant:normal;font-weight:normal;font-stretch:normal;font-size:medium;line-height:normal;font-family:sans-serif;font-variant-ligatures:normal;font-variant-position:normal;font-variant-caps:normal;font-variant-numeric:normal;font-variant-alternates:normal;font-variant-east-asian:normal;font-feature-settings:normal;font-variation-settings:normal;text-indent:0;text-align:start;text-decoration:none;text-decoration-line:none;text-decoration-style:solid;text-decoration-color:#000000;letter-spacing:normal;word-spacing:normal;text-transform:none;writing-mode:lr-tb;direction:ltr;text-orientation:mixed;dominant-baseline:auto;baseline-shift:baseline;text-anchor:start;white-space:normal;shape-padding:0;shape-margin:0;inline-size:0;clip-rule:nonzero;display:inline;overflow:visible;visibility:visible;isolation:auto;mix-blend-mode:normal;color-interpolation:sRGB;color-interpolation-filters:linearRGB;solid-color:#000000;solid-opacity:1;vector-effect:none;fill:#ffffff;fill-opacity:1;fill-rule:nonzero;stroke:none;stroke-width:0.303647;stroke-linecap:butt;stroke-linejoin:round;stroke-miterlimit:4;stroke-dasharray:none;stroke-dashoffset:0;stroke-opacity:1;color-rendering:auto;image-rendering:auto;shape-rendering:auto;text-rendering:auto;enable-background:accumulate;stop-color:#000000;stop-opacity:1"
     d="m 18.284939,4.0692506 h 1.109591 c 0.338362,0 0.610762,0.2790633 0.610762,0.6257025 V 9.4086254 H 17.674177 V 4.6949531 c 0,-0.3466392 0.2724,-0.6257025 0.610762,-0.6257025 z"
     id="path1570"
     sodipodi:nodetypes="sssccss" /><path
     style="color:#000000;font-style:normal;font-variant:normal;font-weight:normal;font-stretch:normal;font-size:medium;line-height:normal;font-family:sans-serif;font-variant-ligatures:normal;font-variant-position:normal;font-variant-caps:normal;font-variant-numeric:normal;font-variant-alternates:normal;font-variant-east-asian:normal;font-feature-settings:normal;font-variation-settings:normal;text-indent:0;text-align:start;text-decoration:none;text-decoration-line:none;text-decoration-style:solid;text-decoration-color:#000000;letter-spacing:normal;word-spacing:normal;text-transform:none;writing-mode:lr-tb;direction:ltr;text-orientation:mixed;dominant-baseline:auto;baseline-shift:baseline;text-anchor:start;white-space:normal;shape-padding:0;shape-margin:0;inline-size:0;clip-rule:nonzero;display:inline;overflow:visible;visibility:visible;isolation:auto;mix-blend-mode:normal;color-interpolation:sRGB;color-interpolation-filters:linearRGB;solid-color:#000000;solid-opacity:1;vector-effect:none;fill:#ffffff;fill-opacity:1;fill-rule:nonzero;stroke:none;stroke-linecap:butt;stroke-linejoin:round;stroke-miterlimit:4;stroke-dasharray:none;stroke-dashoffset:0;stroke-opacity:1;color-rendering:auto;image-rendering:auto;shape-rendering:auto;text-rendering:auto;enable-background:accumulate;stop-color:#000000;stop-opacity:1"
     d="m 18.285156,3.9179688 c -0.421839,0 -0.763672,0.3511661 -0.763672,0.7773437 l -0.028,7.3204065 h 2.634766 l 0.028,-7.3204065 C 20.15788,4.2691381 19.816371,3.9179688 19.394531,3.9179688 Z m 0,0.3027343 h 1.109375 c 0.254885,0 0.458985,0.2075086 0.458985,0.4746094 -1.29257,-0.1802715 -0.765377,-0.141218 -2.027344,0 0,-0.2671008 0.2041,-0.4746094 0.458984,-0.4746094 z"
     id="path1572"
     sodipodi:nodetypes="ssccsssssccs" /></g></g></g></g><path
   sodipodi:type="star"
   style="fill:#ffffff;fill-opacity:1;stroke:none;stroke-width:0.248869;stroke-linejoin:round;stroke-miterlimit:4;stroke-dasharray:none;stroke-opacity:1"
   id="path1890"
   sodipodi:sides="5"
   sodipodi:cx="20.6849"
   sodipodi:cy="-11.917378"
   sodipodi:r1="3.0221083"
   sodipodi:r2="1.267844"
   sodipodi:arg1="1.5707963"
   sodipodi:arg2="2.1991149"
   inkscape:flatsided="false"
   inkscape:rounded="0"
   inkscape:randomized="0"
   d="m 20.6849,-8.8952701 -0.74522,-1.9964009 -2.128975,-0.09183 1.668404,-1.325668 -0.570559,-2.053151 1.77635,1.177093 1.776351,-1.177093 -0.570559,2.053151 1.668404,1.325668 -2.128976,0.09183 z"
   transform="matrix(0,-7.3286476,-7.3286476,0,49.690036,224.84352)"
   inkscape:transform-center-x="2.1149462"
   inkscape:transform-center-y="-6.4713752e-06" /><path
   sodipodi:type="star"
   style="fill:#ffffff;fill-opacity:1;stroke:none;stroke-width:0.31757;stroke-linejoin:round;stroke-miterlimit:4;stroke-dasharray:none;stroke-opacity:1"
   id="path1892"
   sodipodi:sides="5"
   sodipodi:cx="20.6849"
   sodipodi:cy="-11.917378"
   sodipodi:r1="3.0221083"
   sodipodi:r2="1.267844"
   sodipodi:arg1="1.5707963"
   sodipodi:arg2="2.1991149"
   inkscape:flatsided="false"
   inkscape:rounded="0"
   inkscape:randomized="0"
   d="m 20.6849,-8.8952701 -0.74522,-1.9964009 -2.128975,-0.09183 1.668404,-1.325668 -0.570559,-2.053151 1.77635,1.177093 1.776351,-1.177093 -0.570559,2.053151 1.668404,1.325668 -2.128976,0.09183 z"
   transform="matrix(0,-5.7432049,-5.7432049,0,-20.049918,225.94677)"
   inkscape:transform-center-x="1.6574098"
   inkscape:transform-center-y="5.3436316e-06" /><path
   sodipodi:type="star"
   style="fill:#ffffff;fill-opacity:1;stroke:none;stroke-width:0.197572;stroke-linejoin:round;stroke-miterlimit:4;stroke-dasharray:none;stroke-opacity:1"
   id="path1894"
   sodipodi:sides="5"
   sodipodi:cx="20.6849"
   sodipodi:cy="-11.917378"
   sodipodi:r1="3.0221083"
   sodipodi:r2="1.267844"
   sodipodi:arg1="1.5707963"
   sodipodi:arg2="2.1991149"
   inkscape:flatsided="false"
   inkscape:rounded="0"
   inkscape:randomized="0"
   d="m 20.6849,-8.8952701 -0.74522,-1.9964009 -2.128975,-0.09183 1.668404,-1.325668 -0.570559,-2.053151 1.77635,1.177093 1.776351,-1.177093 -0.570559,2.053151 1.668404,1.325668 -2.128976,0.09183 z"
   transform="matrix(0,-9.2314326,-9.2314326,0,-35.412416,243.02799)"
   inkscape:transform-center-x="2.6640492"
   inkscape:transform-center-y="-1.5118901e-05" /></svg>
