<?xml version="1.0" encoding="UTF-8" standalone="no"?>
<svg
   xmlns:dc="http://purl.org/dc/elements/1.1/"
   xmlns:cc="http://creativecommons.org/ns#"
   xmlns:rdf="http://www.w3.org/1999/02/22-rdf-syntax-ns#"
   xmlns:svg="http://www.w3.org/2000/svg"
   xmlns="http://www.w3.org/2000/svg"
   xmlns:sodipodi="http://sodipodi.sourceforge.net/DTD/sodipodi-0.dtd"
   xmlns:inkscape="http://www.inkscape.org/namespaces/inkscape"
   viewBox="0 0 387.06 386"
   version="1.1"
   id="svg14"
   sodipodi:docname="settings.svg"
   inkscape:version="1.0.2 (e86c870879, 2021-01-15)">
  <metadata
     id="metadata20">
    <rdf:RDF>
      <cc:Work
         rdf:about="">
        <dc:format>image/svg+xml</dc:format>
        <dc:type
           rdf:resource="http://purl.org/dc/dcmitype/StillImage" />
        <dc:title></dc:title>
      </cc:Work>
    </rdf:RDF>
  </metadata>
  <defs
     id="defs18" />
  <sodipodi:namedview
     pagecolor="#ffffff"
     bordercolor="#666666"
     borderopacity="1"
     objecttolerance="10"
     gridtolerance="10"
     guidetolerance="10"
     inkscape:pageopacity="0"
     inkscape:pageshadow="2"
     inkscape:window-width="1904"
     inkscape:window-height="1007"
     id="namedview16"
     showgrid="false"
     inkscape:zoom="0.30405592"
     inkscape:cx="193.53"
     inkscape:cy="199.18519"
     inkscape:window-x="23"
     inkscape:window-y="15"
     inkscape:window-maximized="0"
     inkscape:current-layer="svg14" />
  <g
     stroke-linecap="round"
     stroke-width="33.805"
     id="g6"
     style="fill:#ff2e88;fill-opacity:1">
    <path
       d="m62.812 48.073l16.438 45.188c-0.0355 0.038399-0.058296 0.086601-0.093697 0.125l0.125 0.375c-6.9125 7.5338-13.131 15.848-18.5 24.906l-49.5-1.343c-0.9816 2.224-1.9852 4.445-2.875 6.687-1.2123 3.055-2.331 6.105-3.375 9.188-1.0437 3.082-2.0292 6.207-2.9062 9.312-0.78568 2.782-1.4725 5.55-2.125 8.344l40.5 27.094c-0.049198 0.444-0.017399 0.899-0.0625 1.343l0.2813 0.188c-0.4657 4.724-0.6216 9.448-0.625 14.156h88.937c0.01799-2.837 0.25099-5.678 0.657-8.469 0.405-2.79 1-5.544 1.781-8.25 0.78-2.705 1.732-5.356 2.875-7.937s2.476-5.082 3.969-7.5c1.492-2.418 3.139-4.753 4.968-6.969 1.83-2.216 3.846-4.306 6-6.281s4.441-3.836 6.907-5.531c2.465-1.695 5.11-3.249 7.875-4.625 1.972-0.982 3.947-1.828 5.968-2.594 2.021-0.76601 4.07-1.446 6.125-2s4.114-0.99701 6.188-1.344c0.974-0.16299 1.961-0.226 2.937-0.34399 0.334-0.042999 0.666-0.087006 1-0.125 0.76999-0.080994 1.543-0.227 2.313-0.28101 0.752-0.052002 1.498-0.00499 2.25-0.030991 0.85301-0.037003 1.706-0.059006 2.562-0.063004 0.46899 0.003006 0.939-0.042999 1.407-0.031006 0.34399 0.009003 0.687 0.048004 1.031 0.063004 1.717 0.057007 3.437 0.21201 5.156 0.40601 7.378 0.834 14.746 2.857 21.75 6.344 22.117 11.01 34.826 32.864 34.969 55.562h89.031c-0.001007-4.726-0.21799-9.477-0.68799-14.219l41-27.437c-0.011017-0.053009-0.050018-0.103-0.062012-0.15601-0.71201-3.123-1.498-6.239-2.375-9.344-0.87701-3.105-1.831-6.199-2.875-9.281-1.044-3.083-2.163-6.133-3.375-9.188-0.88-2.217-1.84-4.429-2.813-6.625l-49.124 1.344c-0.32898-0.55499-0.72699-1.074-1.063-1.625h-0.31201c-2.408-3.953-4.968-7.775-7.688-11.438-2.72-3.662-5.587-7.1694-8.594-10.531l16.688-45.812c-1.45-1.2646-2.891-2.5309-4.375-3.75-2.467-2.0271-4.976-4.0064-7.531-5.9063-2.557-1.8998-5.174-3.7292-7.813-5.5-2.639-1.7707-5.314-3.485-8.031-5.125-0.77798-0.4691-1.555-0.9276-2.344-1.375l-39 29.344c-0.56799-0.2489-1.15-0.4147-1.719-0.6563l-0.093 0.0625c-4.306-1.8309-8.704-3.4373-13.157-4.875-4.453-1.4376-8.958-2.68-13.531-3.7187l-0.062-0.1563c-0.02301-0.004902-0.041-0.026302-0.063004-0.0312l-14.031-46.562c-1.974-0.20361-3.925-0.44845-5.906-0.59375-3.185-0.23352-6.394-0.3544-9.594-0.4375-2.141-0.055573-4.289-0.0383-6.438-0.03125-1.075 0.011414-2.145-0.027863-3.218 0-3.201 0.083099-6.378 0.23523-9.563 0.46875-1.013 0.074219-2.021 0.22302-3.031 0.3125l-14 46.375c-10.159 2.0969-20.071 5.1804-29.594 9.2188l-39.375-29.594c-1.3157 0.7538-2.6388 1.466-3.9375 2.25-2.7169 1.6399-5.3917 3.3544-8.0312 5.125-2.6393 1.7708-5.2566 3.6002-7.8125 5.5-2.5561 1.8999-5.064 3.8792-7.5313 5.9063-0.9804 0.8056-1.9116 1.6713-2.875 2.5zm181.78 39.281c1.36 0.094299 2.741 0.4516 4.031 1.0938 5.16 2.5689 7.223 8.7707 4.594 13.812-2.63 5.042-8.965 7.038-14.125 4.469-5.161-2.569-7.223-8.7396-4.594-13.781 1.972-3.7813 6.014-5.8764 10.094-5.5938zm-148.88 47.281c1.3597 0.094009 2.7411 0.45201 4.0312 1.094 5.16 2.569 7.223 8.74 4.594 13.781-2.63 5.042-8.9649 7.038-14.125 4.469-5.1604-2.569-7.2232-8.74-4.5938-13.781 1.972-3.782 6.0144-5.845 10.094-5.563z"
       id="path2"
       style="fill:#ff2e88;fill-opacity:1" />
    <path
       d="m324.25 337.93l-16.437-45.187c0.035004-0.039001 0.058014-0.086975 0.093018-0.125l-0.125-0.375c6.913-7.534 13.131-15.848 18.5-24.907l49.5 1.344c0.982-2.224 1.985-4.445 2.875-6.687 1.212-3.055 2.331-6.105 3.375-9.188 1.044-3.082 2.029-6.207 2.906-9.312 0.78598-2.782 1.473-5.55 2.125-8.344l-40.5-27.094c0.049988-0.444 0.017975-0.899 0.062988-1.344l-0.281-0.187c0.465-4.724 0.621-9.448 0.625-14.156h-88.938c-0.018005 2.837-0.25101 5.678-0.65601 8.468-0.405 2.791-1.001 5.545-1.781 8.25-0.78099 2.706-1.732 5.357-2.875 7.938s-2.477 5.082-3.969 7.5-3.139 4.753-4.969 6.969c-1.829 2.215-3.846 4.306-6 6.281s-4.44 3.836-6.906 5.531-5.11 3.249-7.875 4.625c-1.973 0.982-3.948 1.828-5.969 2.594-2.021 0.76601-4.07 1.446-6.125 2s-4.113 0.99701-6.187 1.344c-0.97499 0.16299-1.961 0.22499-2.938 0.34299-0.334 0.043015-0.66501 0.088013-1 0.125-0.76901 0.081009-1.543 0.22801-2.312 0.28201-0.752 0.052002-1.499 0.00499-2.25 0.030991-0.85399 0.037003-1.706 0.059006-2.563 0.061996-0.468-0.001999-0.938 0.044006-1.406 0.032013-0.34399-0.009003-0.687-0.048004-1.031-0.063004-1.718-0.057007-3.437-0.21201-5.156-0.40601-7.379-0.834-14.747-2.857-21.75-6.344-22.117-11.01-34.827-32.864-34.969-55.562h-89.032c9.99e-4 4.726 0.2181 9.477 0.6875 14.218l-41 27.438c0.012024 0.053009 0.050446 0.103 0.0625 0.15601 0.71211 3.123 1.498 6.239 2.375 9.344s1.8313 6.199 2.875 9.281c1.0437 3.083 2.1628 6.133 3.375 9.188 0.88008 2.217 1.8405 4.429 2.8125 6.625l49.125-1.344c0.3285 0.55499 0.7267 1.074 1.0625 1.625h0.3125c2.4079 3.953 4.9672 7.775 7.6875 11.437 2.7203 3.663 5.587 7.17 8.5938 10.532l-16.688 45.812c1.45 1.265 2.8912 2.531 4.375 3.75 2.4671 2.027 4.9752 4.007 7.5312 5.906 2.556 1.9 5.1733 3.73 7.8125 5.5 2.6393 1.771 5.3144 3.486 8.0313 5.125 0.7772 0.47 1.5551 0.92798 2.3437 1.375l39-29.343c0.567 0.24902 1.149 0.414 1.718 0.65601l0.094-0.063c4.305 1.831 8.703 3.438 13.156 4.875 4.453 1.438 8.959 2.681 13.532 3.719l0.062 0.156c0.022003 0.005005 0.039993 0.026978 0.063004 0.031982l14.031 46.562c1.973 0.20401 3.925 0.449 5.906 0.59399 3.185 0.23401 6.393 0.354 9.594 0.43701 2.14 0.056 4.289 0.039001 6.437 0.031982 1.076-0.011993 2.145 0.028015 3.219 0 3.2-0.082977 6.378-0.23599 9.563-0.46899 1.012-0.074005 2.02-0.22299 3.031-0.31299l14-46.375c10.158-2.096 20.071-5.18 29.594-9.218l39.375 29.593c1.315-0.75302 2.638-1.465 3.937-2.25 2.717-1.639 5.392-3.354 8.031-5.125 2.64-1.77 5.257-3.6 7.813-5.5 2.556-1.899 5.064-3.879 7.531-5.906 0.98001-0.80499 1.912-1.671 2.875-2.5zm-181.78-39.281c-1.36-0.093994-2.741-0.452-4.031-1.094-5.161-2.569-7.224-8.771-4.594-13.812 2.629-5.042 8.964-7.038 14.125-4.469 5.16 2.569 7.223 8.74 4.594 13.781-1.972 3.782-6.015 5.877-10.094 5.594zm148.88-47.281c-1.36-0.094009-2.741-0.45201-4.031-1.094-5.161-2.569-7.224-8.74-4.594-13.781 2.629-5.042 8.964-7.038 14.125-4.469 5.16 2.569 7.223 8.739 4.594 13.781-1.973 3.782-6.015 5.845-10.094 5.563z"
       id="path4"
       style="fill:#ff2e88;fill-opacity:1" />
  </g>
</svg>
